<svg xmlns="http://www.w3.org/2000/svg" viewBox="0.025714285671710968 12.479999542236328 227.67428588867188 45.540000915527344" data-asc="0.935"><g fill="#ffffff"><g fill="#ffffff" transform="translate(0, 0)"><path d="M13.14 57.66Q13.14 57.66 13.02 57.66Q12.90 57.60 12.90 57.60Q10.80 57.06 8.37 56.16Q5.94 55.26 4.38 53.76Q3.24 52.56 2.40 51.09Q1.56 49.62 1.08 48.06Q0.54 46.50 0.39 44.76Q0.24 43.02 0.18 41.40Q0.12 41.28 0.12 41.16Q0.06 39.72 0.03 38.25Q0 36.78 0.18 35.34Q0.18 35.34 0.18 35.28Q0.24 35.28 0.24 35.28Q0.60 33.42 1.41 31.47Q2.22 29.52 3.42 28.08Q3.42 28.08 3.48 28.08Q3.48 28.02 3.48 28.02Q4.20 27.30 6 26.31Q7.80 25.32 9.99 24.48Q12.18 23.64 14.13 23.28Q16.08 22.92 17.16 23.34Q18.06 23.58 18.96 23.88Q19.86 24.18 20.64 24.66Q20.82 24.78 21.00 24.90Q21.00 24.24 21.00 23.70Q21.00 23.70 21.00 23.70L21.00 23.70Q20.94 22.20 20.91 20.70Q20.88 19.20 20.82 17.76Q20.82 17.10 20.82 16.47Q20.82 15.84 20.76 15.24Q20.76 15.24 20.76 15.12Q20.76 15.06 20.76 15.06Q21.00 13.92 21.48 13.38Q21.96 12.84 23.04 12.54Q23.04 12.54 23.16 12.54Q23.22 12.54 23.28 12.54Q23.82 12.48 24.36 12.48Q24.90 12.48 25.44 12.48Q26.52 12.48 27.60 12.48Q28.68 12.48 29.76 12.54Q30.06 12.54 30.39 12.54Q30.72 12.54 31.02 12.54Q32.04 12.60 33.24 12.60Q33.36 12.60 33.60 12.60Q33.84 12.54 34.08 12.54Q34.32 12.54 34.50 12.60Q35.58 12.84 36.12 13.35Q36.66 13.86 36.96 14.94Q37.02 15.36 37.05 15.78Q37.08 16.20 37.08 16.62Q37.08 16.86 37.08 17.07Q37.08 17.28 37.08 17.46Q37.14 18.66 37.26 19.83Q37.38 21 37.44 22.20Q37.50 23.40 37.47 24.63Q37.44 25.86 37.38 27.06Q37.32 27.96 37.26 28.86Q37.20 29.76 37.20 30.66Q37.20 31.92 37.29 33.15Q37.38 34.38 37.38 35.58Q37.38 36.42 37.38 37.20Q37.38 37.98 37.32 38.82Q37.32 39.48 37.29 40.14Q37.26 40.80 37.26 41.40Q37.26 42.12 37.26 42.84Q37.26 43.56 37.32 44.28Q37.32 45 37.32 45.78Q37.32 46.56 37.32 47.28Q37.32 48.12 37.35 48.90Q37.38 49.68 37.38 50.52Q37.38 51.18 37.41 51.87Q37.44 52.56 37.44 53.28Q37.44 53.34 37.44 53.40Q37.44 54.18 37.32 54.90Q37.20 55.62 36.60 56.22Q36.06 56.76 35.37 56.88Q34.68 57 33.96 57Q33.72 57 33.60 57Q31.92 57.12 30.18 57.15Q28.44 57.18 26.76 57.12Q26.76 57.12 26.76 57.12Q26.46 57.12 26.19 57.09Q25.92 57.06 25.68 57.06Q25.56 57.06 25.32 57.06Q24.60 57.06 23.94 56.97Q23.28 56.88 22.68 56.28Q22.20 55.74 22.02 55.02Q21.30 55.56 20.58 55.98Q19.14 56.76 17.58 57.12Q16.02 57.48 14.40 57.66Q14.40 57.66 14.40 57.66Q14.34 57.66 14.34 57.66L13.14 57.66M23.34 13.98Q23.34 13.98 23.34 13.98L24.60 14.34L28.20 13.92Q27.48 13.92 26.82 13.92Q26.16 13.92 25.50 13.92L25.50 13.92Q24.96 13.92 24.42 13.92Q23.88 13.92 23.34 13.98M30.36 17.40L31.14 13.98Q31.08 13.98 30.96 13.98Q30.66 13.98 30.36 13.98Q30.06 13.98 29.76 13.98L28.26 14.28L30.36 17.40M33.90 17.94L35.40 14.76Q35.16 14.22 34.26 14.04Q34.02 13.98 33.54 13.98Q33.30 14.04 33.18 14.04Q32.46 14.04 31.80 14.04L33.90 17.94M22.74 14.16Q22.74 14.16 22.68 14.22L22.62 14.58L22.62 16.62L24.36 14.64Q24.36 14.64 24.36 14.64L22.74 14.16M30.66 17.70L33.42 18L31.50 14.22L30.66 17.70M27.06 17.70L27.66 14.34L24.84 14.70L27.06 17.70M28.02 14.70L27.54 18L28.08 14.88L30.12 17.76L28.02 14.70M22.92 16.80L26.64 17.70L24.60 14.94L22.92 16.80M34.62 17.22L35.64 16.20Q35.64 15.66 35.52 15.30L34.62 17.22M34.14 18.36L35.04 20.88L35.64 17.40Q35.64 17.22 35.64 16.86L34.14 18.36M26.82 18.24L22.92 17.28L24.42 21L26.82 18.24M27.48 18.36L27.48 21.12L29.82 18.18L27.48 18.36M33.48 18.48L30.84 18.18L32.34 20.70L33.48 18.48M31.92 21L30.36 18.30L27.78 21.48L31.92 21M27.00 21.54L27.00 18.78L24.84 21.30L27.00 21.54M24.00 20.94L22.32 19.86Q22.32 19.32 22.32 18.78L22.26 19.20L22.32 19.86Q22.32 19.92 22.32 19.98L24.00 20.94M34.74 21.48L33.78 18.90L32.70 21L34.74 21.48M35.82 20.22Q35.82 20.04 35.82 19.83Q35.82 19.62 35.76 19.38L35.52 20.70L35.82 20.22M23.76 23.64L24.18 21.66L22.38 20.46L23.76 23.64M35.88 20.82L35.34 21.84Q35.34 21.84 35.34 21.90L36 22.80Q36 22.56 36 22.32Q35.94 21.66 35.88 20.82M32.10 21.30L27.54 21.84L30.90 24.36L32.10 21.30M22.50 25.98L23.58 24.12L22.38 21.30Q22.38 21.90 22.38 22.47Q22.38 23.04 22.44 23.64Q22.44 24.18 22.47 24.72Q22.50 25.26 22.50 25.86Q22.50 25.92 22.50 25.98M34.86 21.84L32.52 21.42L33.06 23.58L34.86 21.84M27.12 21.96Q27.06 21.96 27.00 21.90L24.66 21.66L27.24 24.12L27.12 21.96M24.12 23.82L26.70 24.12L24.48 21.96L24.12 23.82M32.28 21.96L31.38 24.18L32.64 23.70L32.28 21.96M35.04 22.14L33.60 23.52L35.94 23.28L35.04 22.14M27.60 24.18L30.18 24.30L27.48 22.26L27.60 24.18M33.24 24L34.38 27.12L35.94 23.76L33.24 24M27.00 24.60L24.18 24.36L25.20 27.84L27.00 24.60M22.62 26.46Q22.74 26.76 22.68 27.03Q22.62 27.30 22.26 27.42Q22.08 27.48 21.90 27.66L24.78 28.14L23.76 24.66L22.62 26.46M27.42 28.08L30.42 24.84L27.60 24.66L27.42 28.08M35.82 28.68Q35.82 28.32 35.85 27.93Q35.88 27.54 35.94 27.12Q35.94 26.52 35.97 25.92Q36 25.32 36.06 24.72L34.62 27.72L35.82 28.68M13.74 24.84Q13.32 24.90 12.90 25.02L13.08 26.64L15.78 24.78L13.74 24.84M8.82 26.58Q10.20 25.98 11.52 25.50L12.24 24.78L9.48 25.44L8.34 25.80L8.82 26.58M16.98 24.90L17.82 27.18L18.60 25.32L16.98 24.90M16.44 24.90L13.50 26.94L17.46 27.54L16.44 24.90M32.58 26.76L30.96 24.96L27.96 28.26L32.58 26.76M12.66 26.88L12.42 25.20Q12.36 25.20 12.30 25.20L10.14 27.36L12.66 26.88M33.84 27.18L33.18 25.32L33.24 26.76L33.84 27.18M26.94 28.44L27.06 25.44L25.50 28.26L26.94 28.44M19.02 25.62L18.18 27.60L20.94 27.60L19.02 25.62M21.54 27.60Q21.54 27.60 21.66 27.42Q21.48 27.36 21.24 27.00Q21.00 26.64 20.88 26.58Q20.46 26.22 19.92 25.92Q19.80 25.86 19.68 25.80L21.54 27.60M9.06 27.60L8.52 26.76Q8.10 26.94 7.68 27.12L7.38 27.90L9.06 27.60M29.34 31.68L32.70 27.12L27.42 28.86L29.34 31.68M34.08 27.90Q34.08 27.84 34.08 27.72L33.12 27.12L33.18 30.60L34.08 27.90M13.02 30.42L12.72 27.24L9.72 27.84L13.02 30.42M13.14 27.30L15.66 32.22L17.52 27.90L13.14 27.30M32.76 27.60L29.82 31.56L32.82 31.08L32.76 27.60M6.72 28.02L6.72 27.60Q6.18 27.90 5.67 28.23Q5.16 28.56 4.68 28.98L6.72 28.02M8.28 31.74L9.24 27.96Q9.24 27.96 9.24 27.96L7.20 28.32Q7.20 28.32 7.20 28.32Q7.20 28.32 7.20 28.32Q7.20 28.32 7.20 28.32Q7.20 28.32 7.14 28.38L8.28 31.74M18.18 27.96L19.56 30.42L21.30 27.96L18.18 27.96M24.90 28.56Q24.90 28.56 24.90 28.50L21.72 28.02L22.86 31.92L24.90 28.56M35.82 29.16L34.62 28.14L35.76 31.02Q35.76 30.84 35.76 30.72L35.76 30.72Q35.76 30.00 35.82 29.16M8.64 31.80L12.60 30.54L9.54 28.20L8.64 31.80M13.20 28.20L13.38 30.54L15.06 31.80L13.20 28.20M17.76 28.26L16.14 32.28L17.82 28.38L19.32 30.66L17.76 28.26M19.86 30.66L22.44 31.80L21.42 28.38L19.86 30.66M5.52 31.08L6.72 28.44L4.08 29.64Q4.02 29.70 3.96 29.82L5.52 31.08M34.32 28.44L33.36 31.08L35.64 31.68L34.32 28.44M27.00 28.86Q26.94 28.86 26.94 28.80L25.32 28.62L26.28 30.48L27.00 28.86M5.88 31.14L7.92 31.80L6.90 28.86L5.88 31.14M25.14 28.92L23.40 31.74L25.98 30.66L25.14 28.92M26.58 30.66L28.68 31.44L27.24 29.22L26.58 30.66M2.64 32.52L5.16 31.20L3.72 30.12Q3.66 30.24 3.54 30.42L2.64 32.52M8.64 32.28L10.86 35.52L12.72 31.02L8.64 32.28M19.86 31.20L20.52 34.02Q20.82 34.14 21.06 34.26L22.44 32.34L19.86 31.20M28.92 34.50L26.28 31.20L23.94 35.16L28.92 34.50M23.10 32.34L23.58 34.80L25.68 31.26L23.10 32.34M13.56 31.26L14.34 34.02L15.36 32.70L13.56 31.26M19.98 33.90L19.38 31.38L17.28 34.32Q17.34 34.26 17.40 34.26Q18.60 33.66 19.98 33.90M13.92 34.44L13.08 31.38L11.40 35.52L13.92 34.44M16.02 32.76L16.56 34.44L18.78 31.44L16.02 32.76M32.58 31.62L29.64 32.10L30.78 34.32L32.58 31.62M33.48 31.62L35.34 35.34L35.82 32.22L33.48 31.62M6.06 31.68L7.32 34.32L7.98 32.34L6.06 31.68M34.98 35.76L33.06 31.74L31.14 34.68L34.98 35.76M7.02 34.74L5.58 31.80L3.96 34.92L7.02 34.74M3.54 34.68L5.04 31.80L2.46 33.12L3.54 34.68M10.32 35.58L8.34 32.70L7.68 34.80L10.32 35.58M23.16 35.22L22.68 32.82L21.48 34.50Q21.84 34.80 22.08 35.16L23.16 35.22M30.36 34.50L29.58 33L29.64 34.44L30.36 34.50M15.66 33.12L14.64 34.38L16.14 34.68L15.66 33.12M1.86 35.16L3.12 34.98L2.22 33.66L1.86 35.16M14.40 34.74L15.54 37.14Q15.72 36 16.26 35.04L14.40 34.74M12.96 38.34L14.04 34.80L11.16 36.06L12.96 38.34M30.60 34.92Q30.60 34.92 30.54 34.92L29.58 34.80Q29.58 34.86 29.58 34.86L30.24 38.88L30.60 34.92M23.70 35.58L25.56 38.04Q25.56 38.04 25.62 38.04L29.04 34.86L23.70 35.58M35.22 36.18L31.08 35.04L34.56 39.54L35.22 36.18M4.56 38.16L7.14 35.10L3.72 35.34L4.56 38.16M26.04 38.16L29.94 39.42L29.22 35.16L26.04 38.16M14.28 35.22L13.32 38.34L15.36 38.28Q15.36 38.22 15.36 38.16Q15.42 37.98 15.42 37.80L14.28 35.22M19.68 44.46Q19.68 44.46 19.74 44.40Q19.80 44.40 19.80 44.40Q19.98 44.22 20.25 44.10Q20.52 43.98 20.64 43.80Q21.00 43.38 21.09 42.75Q21.18 42.12 21.24 41.64Q21.30 40.80 21.39 39.96Q21.48 39.12 21.42 38.28L20.40 35.52Q20.28 35.46 20.10 35.40L18.84 35.28Q18.36 35.34 18.00 35.52Q17.28 35.94 17.07 36.75Q16.86 37.56 16.80 38.28Q16.74 38.94 16.77 39.63Q16.80 40.32 16.80 41.04Q16.86 41.70 16.89 42.42Q16.92 43.14 17.10 43.80Q17.22 44.28 17.40 44.70Q17.58 45.12 18.06 45.42Q18.24 45.48 18.60 45.54L19.68 44.46M1.86 35.52L2.46 37.50L3.36 35.34L1.86 35.52M35.94 35.34L35.76 35.76L35.70 36.18Q35.70 36.18 35.70 36.18Q35.70 36.18 35.64 36.36L35.94 37.20Q35.94 36.30 35.94 35.64Q35.94 35.52 35.94 35.34M4.98 38.22L9.06 38.70L7.32 35.40L4.98 38.22M30.96 35.40L30.48 39.54L34.14 39.60L30.96 35.40M23.28 35.58Q23.28 35.58 23.22 35.58L22.32 35.52Q22.50 35.88 22.56 36.27Q22.62 36.66 22.68 37.08Q22.74 37.14 22.74 37.26L23.28 35.58M2.70 37.86L4.14 38.10L3.48 35.88L2.70 37.86M23.52 36L22.80 38.10Q22.86 38.52 22.86 39L25.20 38.16L23.52 36M20.94 36.06L21.18 36.72Q21.12 36.30 21.00 36.12Q21.00 36.06 20.94 36.06M1.44 37.98L1.62 36.36L2.16 37.92L1.62 36.06L1.56 36.18Q1.44 37.02 1.44 37.98M9.90 38.70L12.54 38.40L10.98 36.42L9.90 38.70M34.98 39.42L35.88 38.94Q35.88 38.88 35.88 38.85Q35.88 38.82 35.88 38.82Q35.88 38.46 35.88 38.34L35.52 37.02L34.98 39.42M1.56 39.66L1.98 38.28L1.56 38.34L1.56 39.66M3.18 40.92L4.14 38.58L2.64 38.34L3.18 40.92M22.86 39.48Q22.86 39.90 22.80 40.32L24.12 42.66L25.20 38.64L22.86 39.48M7.44 42.60L9.12 39.18L4.98 38.70L7.44 42.60M15.36 38.76L13.32 38.82L13.98 41.58L15.36 39.24Q15.36 39 15.36 38.76M28.20 42.06L25.68 38.82L24.54 42.96L28.20 42.06M12.54 38.88L9.78 39.18L10.50 41.88L12.54 38.88M6.90 42.66L4.56 38.94L3.42 41.58L6.90 42.66M2.82 41.40L2.28 38.94L1.56 41.04L2.82 41.40M13.62 42L12.90 39.18L10.86 42.18L13.62 42M34.92 39.96L35.82 42.06Q35.82 41.76 35.82 41.40Q35.82 40.92 35.82 40.44Q35.82 39.96 35.88 39.48L34.92 39.96M10.08 42.30L9.42 39.66L7.86 42.72L10.08 42.30M30.54 40.02L31.08 42.30L33.96 40.08L30.54 40.02M15.36 40.20L14.22 42.18L15.48 43.02Q15.42 42.54 15.42 42.06Q15.42 41.58 15.36 41.10Q15.36 40.56 15.36 40.20M35.58 43.08L34.50 40.26L31.56 42.54L35.58 43.08M30.66 42.42L30.12 40.38L29.04 42L30.66 42.42M22.74 41.16Q22.68 41.46 22.68 41.82Q22.62 42.24 22.56 42.42L23.64 42.84L22.74 41.16M1.74 43.26L2.82 41.76L1.62 41.46Q1.62 41.88 1.65 42.33Q1.68 42.78 1.74 43.26M4.56 45.42L7.20 43.14L3.42 41.94L4.56 45.42M3.06 42.24L4.20 45.48L3.00 42.06L1.74 43.80Q1.74 43.86 1.74 43.98L3.06 42.24M26.94 46.26L28.44 42.36L24.42 43.38Q24.42 43.38 24.42 43.38L26.94 46.26M30.78 42.90Q30.72 42.84 30.72 42.78L28.86 42.36L30.42 45.12L30.78 42.90M12.42 45.30L13.62 42.36L10.62 42.60L12.42 45.30M13.86 42.66L12.72 45.54Q12.72 45.54 12.84 45.54L13.98 42.78L15.72 45.72L13.86 42.66M7.80 45L10.02 42.66L7.68 43.20Q7.62 43.20 7.62 43.20Q7.62 43.26 7.56 43.26L7.80 45M27.42 46.14L30.12 45.36L28.68 42.72L27.42 46.14M22.50 42.78Q22.44 43.32 22.26 43.68L22.62 46.50L24.00 43.44Q24.00 43.44 23.94 43.32L22.50 42.78M8.22 45.06L12.06 45.36L10.32 42.84L8.22 45.06M35.70 43.50L31.32 42.90L34.56 45.72L35.70 43.50M30.78 45.30L33.78 45.66L31.14 43.20L30.78 45.30M16.02 43.80L15.54 43.50Q15.60 43.80 15.66 44.10Q15.78 44.58 15.90 44.94L16.02 43.92Q16.08 43.98 16.02 43.80M5.16 45.36L7.44 45.06L7.26 43.56L5.16 45.36M22.92 46.62L26.52 46.32L24.24 43.74L22.92 46.62M35.82 44.04L35.22 45.18L35.88 44.76Q35.88 44.58 35.88 44.28Q35.88 44.16 35.82 44.04M22.02 44.34Q21.90 44.52 21.78 44.64Q21.54 44.94 21.24 45.12Q20.94 45.30 20.64 45.54L19.62 46.50L22.26 46.68L22.02 44.34M1.86 45L2.64 48.24Q2.82 48.66 3.00 49.02L4.08 45.84L1.80 44.58Q1.86 44.76 1.86 45M34.80 46.14L35.82 49.26L35.88 47.70Q35.88 47.46 35.88 47.28Q35.88 46.80 35.88 46.32Q35.88 45.84 35.88 45.30L34.80 46.14M6.72 49.32L7.38 45.54L4.74 45.90L6.72 49.32M12.24 45.90L8.22 45.54L11.10 49.20L12.24 45.90M33.90 46.20L30.72 45.78L30.96 48.36L33.90 46.20M27.36 46.62L28.86 49.68L30.12 45.84L27.36 46.62M13.86 48.42L15.48 46.08L12.90 45.90L13.86 48.42M16.26 46.26L17.40 49.68L17.88 46.86Q17.64 46.80 17.40 46.68Q17.34 46.62 17.28 46.62L16.26 46.26M3.24 49.62Q3.30 49.74 3.36 49.86L6.42 49.80L4.44 46.32L3.24 49.62M13.50 48.78L12.54 46.38L11.52 49.32L13.50 48.78M17.04 50.22L15.84 46.38L14.16 48.84L17.04 50.22M35.64 50.22L34.38 46.44L31.26 48.78L35.64 50.22M30.54 48.72L30.36 46.68L29.40 49.62L30.54 48.72M25.08 49.80L26.58 46.80L23.04 47.10L25.08 49.80M19.08 46.98Q19.08 46.98 19.02 46.98Q18.84 47.04 18.78 47.04Q18.72 47.04 18.66 46.98L20.04 49.02L22.02 47.10L19.08 46.98M28.50 50.10L27.00 47.04L25.50 49.98L28.50 50.10M24.60 49.86L22.56 47.28L20.52 49.20L24.60 49.86M18.30 47.28L17.76 50.28L19.62 49.32L18.30 47.28M34.32 52.20Q34.32 52.20 34.38 52.20L35.76 50.64L31.20 49.14L34.32 52.20M13.56 49.14L11.40 49.74Q11.40 49.74 11.40 49.74Q11.40 49.74 11.34 49.98L11.64 53.16L13.56 49.14M15.48 53.94L17.28 50.82Q17.28 50.82 17.22 50.70L13.98 49.20L15.48 53.94M31.02 49.44L31.20 52.56L33.78 52.26L31.02 49.44M24.90 50.28L20.40 49.56L22.44 52.56Q22.62 52.44 22.86 52.44Q22.92 52.44 22.98 52.44L24.90 50.28M15.06 53.94L13.74 49.62L11.94 53.40L15.06 53.94M17.70 50.76Q17.70 50.76 17.70 50.76Q17.70 50.76 17.70 50.82L19.50 53.46L19.74 49.62L17.70 50.76M10.92 49.92L7.26 50.22L9.60 53.52L10.92 49.92M20.10 49.92L19.98 53.82L20.16 50.10L22.08 52.92Q22.14 52.86 22.20 52.86L20.10 49.92M3.54 50.22Q4.38 51.66 5.40 52.74Q5.46 52.80 5.52 52.86L6.54 50.16L3.54 50.22M25.26 50.40L25.62 54L28.68 50.46L25.32 50.34Q25.32 50.34 25.26 50.40M6.42 53.52Q6.18 53.34 5.94 53.16L6.90 50.52L9.36 53.76L6.84 50.46L5.82 53.10Q5.88 53.16 5.94 53.16L5.82 53.46L6.42 53.52M26.22 53.88L30.54 52.68L28.92 50.70L26.22 53.88M11.04 50.70L9.96 53.64L11.34 53.40L11.04 50.70M25.20 53.94L24.96 50.76L23.34 52.50Q23.52 52.68 23.46 53.22L25.20 53.94M35.82 51.12L34.74 52.32L36 52.86Q36 52.56 36 52.26L35.82 51.12M17.46 51.12L15.84 54L19.32 53.76L17.46 51.12M32.46 55.56L33.90 52.74L31.32 52.98L32.46 55.56M30.48 53.16L26.16 54.36L28.86 55.74Q28.92 55.74 29.04 55.74L30.48 53.16M36 53.88Q36 53.82 36 53.70L36 53.28Q36 53.34 36 53.58Q36 53.58 36 53.61Q36 53.64 36 53.70L34.92 55.50Q35.04 55.50 35.10 55.44L36 53.88M34.20 53.28L33 55.62Q33.24 55.62 33.54 55.56Q33.66 55.56 33.96 55.56Q34.26 55.56 34.44 55.56L34.20 53.28M24.48 55.62Q24.54 55.62 24.54 55.62Q24.54 55.62 24.54 55.62L25.14 54.42L23.40 53.70Q23.40 53.76 23.40 53.88Q23.40 53.94 23.40 53.94Q23.40 53.94 23.40 53.94L24.48 55.62M21.30 53.76L20.04 54.18L20.10 54.60Q20.70 54.18 21.30 53.76M11.34 53.88L10.02 54.12L11.10 55.62Q11.16 55.62 11.22 55.68L11.34 53.88M14.64 56.16Q14.52 56.16 14.64 56.16L15.12 54.42L12.30 53.94L14.64 56.16M8.34 54.06L7.08 53.94Q7.38 54.12 7.68 54.30L8.34 54.06M13.98 56.22L11.76 54.12L11.70 55.80Q12.06 55.92 12.45 56.01Q12.84 56.10 13.20 56.22L13.98 56.22M10.32 55.38L9.48 54.24L8.28 54.60Q9.18 54.96 10.32 55.38M18.96 54.30L15.78 54.48L16.44 55.92Q16.74 55.86 17.04 55.80L18.96 54.30M19.62 54.84L19.56 54.42L18.30 55.38Q19.02 55.14 19.62 54.84M35.94 54.42L35.46 55.26Q35.58 55.26 35.58 55.20Q35.88 54.90 35.94 54.42M27.78 55.68L25.62 54.60L25.08 55.68Q25.14 55.62 25.32 55.62Q25.56 55.62 25.68 55.62Q25.98 55.62 26.25 55.65Q26.52 55.68 26.82 55.68Q27.30 55.68 27.78 55.68M23.94 55.44L23.40 54.66Q23.46 55.02 23.70 55.26Q23.82 55.38 23.94 55.44M15.96 55.98L15.48 54.96L15.18 56.10Q15.60 56.04 15.96 55.98M32.28 55.98L32.16 55.68Q31.44 55.68 30.75 55.74Q30.06 55.80 29.28 55.98L32.28 55.98ZM43.98 39.90Q44.76 39.48 45.60 39.12Q46.44 38.76 47.34 38.40Q47.40 38.34 47.46 38.28Q47.40 38.22 47.46 38.22L48.36 35.64Q47.46 35.64 46.74 35.64Q46.20 35.64 45.60 35.64Q45.00 35.64 44.40 35.64Q43.14 35.58 42.36 35.28Q41.58 34.98 41.04 33.66Q40.86 33.18 40.92 32.82Q40.98 32.46 41.16 32.04Q41.22 31.80 41.28 31.68Q41.58 30.66 42.21 29.79Q42.84 28.92 43.62 28.14Q44.76 27.00 46.92 25.95Q49.08 24.90 51.42 24.12Q53.76 23.34 55.38 23.10Q55.32 23.10 55.38 23.10Q55.44 23.10 55.44 23.10Q56.52 23.04 57.57 23.04Q58.62 23.04 59.64 23.10Q59.64 23.10 59.70 23.10Q59.70 23.10 59.70 23.10Q61.02 23.28 62.85 23.82Q64.68 24.36 66.63 25.11Q68.58 25.86 70.23 26.76Q71.88 27.66 72.84 28.56Q72.84 28.56 72.84 28.62Q72.90 28.68 72.90 28.68Q73.74 29.76 74.34 30.96Q74.88 32.10 75.24 33.42Q75.60 34.98 75.57 36.66Q75.54 38.34 75.42 39.96L75.42 39.96Q75.42 39.96 75.42 39.96Q75.30 41.40 75.18 42.81Q75.06 44.22 74.88 45.60Q74.70 47.22 74.58 48.84Q74.46 50.46 74.40 52.08Q74.40 52.08 74.40 52.08Q74.40 52.08 74.40 52.08Q74.40 52.08 74.40 52.08Q74.40 52.08 74.40 52.08Q74.40 52.32 74.40 52.56Q74.40 52.80 74.40 53.10Q74.40 53.88 74.34 54.69Q74.28 55.50 73.68 56.16Q73.08 56.82 72.33 56.91Q71.58 57 70.80 57.06Q70.80 57.06 70.80 57.06Q70.80 57.06 70.80 57.06Q69.96 57.06 69.12 57.06Q68.28 57.06 67.44 57Q66.54 57 65.70 56.97Q64.86 56.94 64.02 57Q63.72 57 63.45 57Q63.18 57 62.88 57.06Q62.76 57.06 62.46 57.06Q62.22 57.12 62.01 57.12Q61.80 57.12 61.56 57.12Q61.08 57 60.66 56.85Q60.24 56.70 59.94 56.40Q59.52 55.98 59.40 55.50Q58.98 55.86 58.44 56.16Q57.00 57.06 55.32 57.36Q53.64 57.66 51.96 57.78Q51.96 57.78 51.90 57.72Q51.78 57.72 51.78 57.72L49.74 57.42Q48.78 57.30 47.82 57.12Q46.86 56.94 45.90 56.58Q45.90 56.58 45.78 56.52Q45.72 56.46 45.66 56.46Q44.94 55.86 43.71 54.69Q42.48 53.52 41.40 52.20Q41.34 52.14 41.28 52.08Q40.26 50.76 39.54 49.47Q38.82 48.18 38.88 47.22Q39.00 45.78 39.48 44.52Q39.96 43.26 40.74 42.18Q40.74 42.18 40.80 42.12Q40.86 42.06 40.86 42.06Q41.46 41.46 42.24 40.92Q43.02 40.38 43.98 39.90M53.70 25.14L58.92 24.48Q58.50 24.48 58.08 24.48L53.70 25.14M55.14 24.60L55.86 24.54Q55.68 24.54 55.56 24.54Q55.38 24.54 55.14 24.60M59.64 24.60L59.94 26.64L60.30 24.66Q60.12 24.66 60.00 24.60L59.64 24.60M59.64 27.72L59.22 24.84L57.30 26.70L59.64 27.72M61.14 24.84Q62.70 25.26 64.68 25.98L65.16 25.38L61.14 24.84M60.72 24.96L60.24 27.84L62.82 27.54L60.72 24.96M51.18 25.74L52.38 27.48L52.98 25.32L52.08 25.44Q51.60 25.56 51.18 25.74M53.46 25.44L52.80 27.72L56.22 26.70L53.46 25.44M52.08 27.96L50.76 25.92L50.22 28.38L52.08 27.96M48.90 26.64L49.80 28.08L50.22 26.04Q49.56 26.34 48.90 26.64M65.76 28.26L65.34 26.22Q65.16 26.16 65.04 26.10L63.72 27.60L65.76 28.26M65.88 26.46L66.24 28.20L67.74 27.24Q66.84 26.82 65.88 26.46M49.44 28.44L48.48 26.82Q47.10 27.42 46.08 28.08L49.44 28.44M52.80 28.08L55.08 30.36L56.64 26.94L52.80 28.08M57.18 30.12L59.58 28.14L57.00 27.06L57.18 30.12M66.96 28.32L69.60 28.14Q68.94 27.78 68.22 27.42L66.96 28.32M55.44 30.42L56.82 30.30L56.70 27.78L55.44 30.42M60.24 28.20L61.14 31.32L63.06 27.84L60.24 28.20M65.88 28.80Q65.82 28.74 65.82 28.68L63.60 27.96L65.88 31.08L65.88 28.80M61.44 31.50L65.52 31.20L63.30 28.14L61.44 31.50M50.34 30.96L52.02 28.32L50.16 28.80Q50.16 28.80 50.16 28.80Q50.10 28.86 50.04 28.92L50.34 30.96M47.70 30.18Q47.76 30.12 47.82 30.12L49.62 28.80L45.60 28.38Q45.66 28.38 45.60 28.38L47.70 30.18M52.38 28.38L50.70 31.32L52.50 28.44L54.84 30.60L52.38 28.38M68.58 30.60L69.90 28.44L66.36 28.74L68.58 30.60M44.04 31.38L47.22 30.24L45.30 28.62L44.04 31.38M70.14 28.74L68.94 30.66L72.60 31.92L70.14 28.74M68.10 30.66L66.30 29.16L66.24 31.14L68.10 30.66M44.10 30.42L44.64 29.16Q44.64 29.16 44.64 29.16Q44.46 29.34 44.34 29.46L44.10 30.42M48.18 30.30L49.98 31.08L49.74 29.16L48.18 30.30M72 30.36L71.04 29.28L72.66 31.44L72 30.36M42.90 31.68L43.38 31.62L43.68 30.48L42.90 31.68M45.66 34.14L47.22 30.78L43.98 31.92L45.66 34.14M49.98 31.62L48.06 30.78L48.96 33.72L49.98 31.62M57.96 32.10L57.06 30.78L56.16 32.52Q56.22 32.52 56.22 32.52Q57.06 32.10 57.96 32.10M56.64 30.78L55.32 30.90L55.50 33.06L56.64 30.78M58.44 32.16Q59.04 32.28 59.40 32.64Q59.70 32.94 59.82 33.30L60.66 31.86L57.60 30.96L58.44 32.16M53.10 33.72L54.60 30.96L50.82 31.68L53.10 33.72M48.60 34.14L47.64 31.02L46.14 34.20Q46.44 34.20 46.74 34.20Q47.64 34.20 48.60 34.14M66.30 31.62L66.78 34.26L68.16 31.14L66.30 31.62M68.94 31.14L69.84 34.98L72.78 32.52L68.94 31.14M55.02 33.48L54.90 31.50L53.58 33.84L54.36 33.78Q54.72 33.66 55.02 33.48M69.42 35.10L68.52 31.50L67.08 34.86L69.42 35.10M61.62 31.92L64.44 34.32L65.64 31.68L61.62 31.92M52.56 33.90L50.34 31.92L49.32 34.14L52.56 33.90M42.36 32.88Q42.36 32.76 42.54 32.40Q42.60 32.22 42.60 32.16Q42.60 32.10 42.60 32.16Q42.54 32.22 42.48 32.16L42.36 32.88M45.00 34.14L43.56 32.16L42.54 33.18L45.00 34.14M66.42 34.74L65.88 32.22L64.86 34.50L66.42 34.74M73.74 33.54L73.98 34.38Q73.92 34.08 73.80 33.78Q73.80 33.66 73.74 33.54M55.86 34.62L56.40 35.52Q56.88 35.40 57.33 35.31Q57.78 35.22 58.26 35.16Q58.32 35.10 58.38 35.10Q58.56 35.10 58.62 35.04Q58.62 34.68 58.62 34.44Q58.56 34.32 58.53 34.05Q58.50 33.78 58.44 33.66Q58.20 33.48 57.66 33.57Q57.12 33.66 56.88 33.78Q56.64 33.90 56.40 34.20Q56.16 34.50 55.86 34.62M44.16 34.20L42.60 33.60Q42.90 34.02 43.23 34.11Q43.56 34.20 44.10 34.20Q44.10 34.20 44.16 34.20M73.80 34.80L73.56 33.66L73.56 34.26L73.62 35.22L73.80 34.80M60.00 34.08Q60.00 34.20 60.00 34.20Q60.00 34.20 60.00 34.20L63.96 34.38L60.00 34.08Q60.00 34.02 60.00 33.99Q60.00 33.96 60.00 34.08M50.70 37.08Q50.82 37.08 50.94 37.02L50.10 38.04L51.30 38.40Q51.84 38.22 52.35 38.01Q52.86 37.80 53.34 37.56Q53.64 37.50 54.06 37.44L54.66 39.54Q54.72 39.54 54.72 39.42L54.18 37.44Q54.12 37.44 54.06 37.44L53.64 36.06Q53.64 36.06 53.67 36.06Q53.70 36.06 53.76 36.06L53.58 35.46Q53.52 35.46 53.46 35.46L53.16 34.44L52.26 35.46Q52.14 35.46 52.08 35.46L50.70 37.08M64.20 34.92L60.06 34.56Q60.06 34.74 60.06 34.92L61.74 38.52L64.20 34.92M55.50 34.86L55.44 35.70Q55.74 35.64 56.04 35.58L55.56 34.80Q55.50 34.86 55.50 34.86M58.50 38.88L59.10 36.54Q59.40 36.48 59.67 36.39Q59.94 36.30 60.00 35.94L61.44 38.76L60.06 35.70Q60.06 35.88 60.00 35.94L59.52 34.86L59.10 36.54Q59.04 36.54 58.98 36.54L58.50 38.88M74.04 34.86Q74.04 34.92 74.04 34.92L73.62 35.76Q73.62 35.76 73.56 35.94L74.04 39.18Q74.10 38.10 74.13 37.02Q74.16 35.94 74.04 34.86M66.48 35.10L64.62 34.92L64.86 37.38L66.48 35.10M55.02 35.76L55.14 35.04Q54.54 35.28 53.88 35.40Q53.88 35.46 53.82 35.46L54.00 36Q54.24 35.94 54.51 35.88Q54.78 35.82 55.02 35.76M69.48 35.52Q69.48 35.52 69.48 35.52L66.90 35.22L67.74 38.04L69.48 35.52M64.32 35.34L62.22 38.40L64.56 37.56L64.32 35.34M50.94 37.02L52.26 35.46Q52.38 35.46 52.56 35.46Q52.68 35.46 52.98 35.46Q53.28 35.52 53.46 35.46L53.64 36.06Q53.28 36.12 52.98 36.18Q52.98 36.18 52.86 36.24Q52.80 36.24 52.74 36.24Q52.02 36.60 50.94 37.02M49.74 37.50Q49.86 37.44 49.98 37.38L51.60 35.52Q51.54 35.52 51.42 35.52Q50.88 35.52 50.34 35.55Q49.80 35.58 49.32 35.58L49.74 37.50M65.22 37.56L67.32 38.04L66.60 35.58L65.22 37.56M48.00 38.10Q48.36 37.98 48.72 37.86Q49.08 37.74 49.38 37.62L48.96 35.58Q48.84 35.58 48.72 35.58L48.00 38.10M73.20 35.94L70.20 35.70L72.48 37.80L73.20 35.94M69.78 35.76L68.16 38.04L71.94 37.86L69.78 35.76M58.20 38.52L58.68 36.54Q58.62 36.54 58.56 36.54Q57.90 36.66 57.18 36.84L58.20 38.52M73.26 36.66L72.84 37.98L73.62 38.82L73.26 36.66M55.08 39.42L57.96 38.82L56.82 36.90Q56.40 36.96 56.04 37.05Q55.68 37.14 55.32 37.20L55.08 39.42M54.78 38.76L54.90 37.26Q54.60 37.32 54.42 37.38L54.78 38.76M65.16 38.04L66.96 42.54L67.44 38.52L65.16 38.04M61.92 39L62.52 40.98L64.26 38.22L61.92 39M66.66 43.08L64.74 38.28L62.82 41.40L66.66 43.08M68.04 38.58L69.66 42.84L72.12 38.28L68.04 38.58M73.68 41.70L72.48 38.64L70.14 42.96L73.68 41.70M50.76 38.64Q50.58 38.70 50.40 38.76L52.80 42.96L54.48 39.84L50.76 38.64M49.98 38.94Q49.98 38.94 49.92 38.94L49.74 42.48L52.32 43.08L49.98 38.94M73.20 39.06L73.74 40.56L73.74 39.66L73.20 39.06M48.30 39.54L49.32 41.70L49.44 39.12Q49.14 39.18 48.87 39.30Q48.60 39.42 48.30 39.54M58.68 39.24L60.18 42.42Q60.24 42.42 60.30 42.42L61.32 39.12L58.68 39.24M55.26 39.90L57.00 42.18L57.96 39.30L55.26 39.90M67.80 39.36L67.38 43.26L69.24 43.14L67.80 39.36M58.92 42.72Q59.34 42.60 59.70 42.48L58.38 39.66L57.36 42.48L58.92 42.72M62.16 41.46L61.62 39.66L60.78 42.54L62.16 41.46M49.14 42.42L47.82 39.72Q47.34 39.90 46.86 40.08L45.66 42.24L49.14 42.42M44.88 41.04L45.24 41.94L46.14 40.38Q45.42 40.74 44.88 41.04M44.82 42.12L44.46 41.22Q43.98 41.52 43.56 41.76L44.82 42.12M65.28 45.84L66.84 43.50L62.76 41.76L65.28 45.84M60.72 44.40L62.04 42L60.60 43.14Q60.60 43.32 60.54 43.62L60.72 44.40M62.46 42L61.02 44.64L64.74 45.66L62.46 42M45.00 42.60Q45.00 42.60 45.00 42.54L43.20 42Q43.08 42.06 42.96 42.18L43.32 45.30L45.00 42.60M73.74 42.06L69.84 43.44L72.36 46.38L73.74 42.06M40.62 45.54L43.02 45.42L42.60 42.42L40.62 45.54M46.80 45.42L49.08 42.78L45.42 42.60L46.80 45.42M58.14 42.96L57.24 42.84Q57.24 42.84 57.18 42.84L56.46 43.44Q56.64 43.38 56.82 43.35Q57.00 43.32 57.18 43.26Q57.42 43.20 57.66 43.11Q57.90 43.02 58.14 42.96M49.86 42.84L51.18 46.38L52.62 43.56Q52.62 43.56 52.56 43.50L49.86 42.84M43.68 45.42L46.44 45.54L45.24 42.96L43.68 45.42M47.04 45.72Q47.04 45.72 47.16 45.72L49.44 43.14L50.94 46.62L49.38 43.02L47.04 45.72M56.40 43.02L53.10 43.62L53.94 44.76Q54.36 44.28 54.96 43.98Q55.14 43.86 55.38 43.80L56.40 43.02M69.36 43.50L67.32 43.62Q67.26 43.62 67.26 43.68L67.92 45.54L69.36 43.50M73.62 43.68L72.78 46.32L73.38 46.26Q73.44 45.84 73.44 45.48Q73.44 45.48 73.44 45.48Q73.44 45.48 73.44 45.48Q73.44 45.48 73.44 45.48Q73.50 45 73.56 44.55Q73.62 44.10 73.62 43.68M69.60 43.74L68.28 45.60L71.76 46.26L69.60 43.74M52.86 43.92L51.72 46.14L53.64 44.94L52.86 43.92M67.02 44.04L65.76 45.78L67.56 45.60L67.02 44.04M58.86 44.22Q58.56 44.34 58.23 44.43Q57.90 44.52 57.54 44.64Q57.06 44.76 56.58 44.91Q56.10 45.06 55.62 45.24Q55.38 45.42 55.08 45.66Q54.78 45.90 54.72 46.14L55.02 46.86Q55.02 46.86 55.02 46.92Q55.08 46.92 55.29 46.95Q55.50 46.98 55.74 47.04L56.88 46.50Q57.42 46.20 57.84 45.96Q58.26 45.72 58.56 45.12Q58.74 44.76 58.86 44.22M60.42 44.64L60.30 44.34Q60.30 44.34 60.30 44.40Q60.24 44.64 60.42 44.64M64.92 46.26L61.08 45.12L63.24 49.68L64.92 46.26M60.36 45.30L59.88 45.66Q59.88 45.72 59.82 45.78Q59.70 46.02 59.58 46.20L60.18 48.42L60.36 45.30M54.06 45.48L53.82 47.76Q53.94 47.88 54.12 48.06Q54.36 48.24 54.63 48.30Q54.90 48.36 55.20 48.36L55.68 49.68L53.58 50.10L55.74 49.80Q55.74 49.74 55.74 49.74Q55.74 49.74 55.80 49.62L55.32 48.42Q55.32 48.42 55.20 48.36L54.06 45.48M53.52 47.34Q53.04 46.56 53.40 45.66L51.48 46.86L53.22 49.62L53.52 47.34M62.82 49.92L60.84 45.72L60.60 49.62L62.82 49.92M42.66 49.50L43.02 45.90L40.56 46.02L42.66 49.50M43.86 45.90L46.14 48.36L46.50 46.02L43.86 45.90M67.56 46.08L65.76 46.26L67.32 48.12L67.56 46.08M48.42 49.86L50.70 46.92L47.16 46.14L48.42 49.86M72.12 46.80L68.52 46.14L71.58 49.44L72.12 46.80M45.90 48.78L43.44 46.20L43.14 49.92L45.90 48.78M70.92 49.44L68.04 46.32L67.74 48.54L70.92 49.44M67.08 48.60L65.34 46.50L63.72 49.80L67.08 48.60M60.06 49.62L59.22 46.68Q58.86 47.04 58.26 47.40L56.46 49.62L60.06 49.62M72.78 46.80L73.26 47.64Q73.26 47.22 73.32 46.74L72.78 46.80M46.56 48.78L47.88 49.74L46.86 46.80L46.56 48.78M42.36 49.92L40.50 46.80L40.62 48.42Q40.86 48.96 41.28 49.68L42.36 49.92M51.12 47.22L48.84 50.10L52.98 50.04L51.12 47.22M73.14 48.54Q73.14 48.54 73.14 48.54Q73.14 48.54 73.20 48.48L72.54 47.28L72.06 49.38L73.14 48.54M55.62 48.42L56.04 49.50L57.42 47.88L56.04 48.42Q56.04 48.48 55.92 48.48Q55.74 48.48 55.74 48.48Q55.68 48.48 55.62 48.42M71.40 49.98L67.62 48.96L67.86 52.68L71.40 49.98M63.48 50.40L64.32 52.20Q64.32 52.20 64.38 52.20L67.14 48.96L63.48 50.40M73.02 50.46Q73.08 49.74 73.14 49.02L71.94 49.98Q71.94 49.98 71.94 50.04Q71.88 50.04 71.88 50.10L72.60 52.80L73.02 50.46M44.10 51.90L46.02 49.14L43.14 50.28L44.10 51.90M64.80 52.26L67.50 52.62L67.32 49.32L64.80 52.26M47.82 53.40L46.26 49.44L44.40 52.14L47.82 53.40M56.10 49.98L57.72 52.98L60.12 49.98L56.10 49.98M63.00 50.34Q63.00 50.34 63.00 50.34L60.66 50.04L62.64 52.44L63.00 50.34M42.12 50.82L42.48 50.34L41.64 50.10Q41.88 50.46 42.12 50.82M55.62 50.16L53.76 50.46L54.60 51.84L55.62 50.16M59.94 52.74Q60.12 52.56 60.42 52.50Q60.90 52.44 61.02 52.62L62.22 52.50L60.36 50.22L58.20 52.92L59.94 52.74M68.40 52.74L72.30 53.10L71.58 50.34L68.40 52.74M55.92 50.34L54.90 52.08L57.18 52.80L55.92 50.34M48.60 50.52L50.52 53.94L53.04 50.40L48.60 50.52M43.20 52.02Q42.78 51.60 42.48 51.18L42.84 50.70L43.80 52.14L42.78 50.58L42.36 51.06Q42.42 51.12 42.48 51.18L41.88 51.90L43.20 52.02M54.36 52.14L53.34 50.58L51.18 53.82L53.40 50.70L54.36 52.14M63.30 50.94L63.00 52.38L63.96 52.26L63.30 50.94M50.10 53.94L48.60 51.18L48.48 53.64L50.10 53.94M57.30 53.34L55.02 52.62L56.40 55.26L57.30 53.34M47.64 53.88L44.46 52.68L45.06 53.94Q45.48 54.42 45.90 54.78L47.64 53.88M52.80 56.22L54.12 52.68L51.00 54.36L52.80 56.22M64.08 52.74L63.06 52.86L64.02 55.02L64.08 52.74M67.44 55.50L67.50 53.10L64.98 52.80L67.44 55.50M54.60 52.80L53.34 56.22Q53.76 56.16 54.12 56.10L56.10 55.62L54.60 52.80M60.78 55.08L61.62 55.62Q61.68 55.68 61.74 55.68L62.40 52.98L61.08 53.10Q61.02 53.22 60.96 53.52Q60.90 53.76 60.90 53.82Q61.08 53.70 60.84 54.12Q60.84 54.12 60.84 54.18Q60.78 54.36 60.75 54.60Q60.72 54.84 60.78 55.08M66.90 55.56L64.56 53.04L64.44 55.56Q65.04 55.50 65.64 55.53Q66.24 55.56 66.90 55.56M68.58 53.22L71.40 55.26L72.24 53.52L68.58 53.22M59.10 53.94Q59.28 53.76 59.40 53.58Q59.46 53.58 59.46 53.52Q59.52 53.40 59.52 53.28Q59.58 53.28 59.52 53.28L58.32 53.40L59.10 53.94M70.86 55.44L67.98 53.40L67.92 55.62Q68.34 55.62 68.73 55.62Q69.12 55.62 69.54 55.62L70.86 55.44M63.72 55.56L62.76 53.40L62.22 55.68Q62.28 55.68 62.46 55.62Q62.70 55.62 62.82 55.62Q63.00 55.56 63.24 55.56Q63.48 55.56 63.72 55.56M58.80 54.18L57.66 53.46Q57.66 53.46 57.66 53.46L56.76 55.44Q57.24 55.20 57.72 54.90Q58.32 54.54 58.80 54.18M72.90 54.72L72.60 53.94L71.88 55.38L72.36 55.38Q72.48 55.32 72.60 55.20Q72.78 55.02 72.90 54.72M50.16 54.48L48.60 54.12L49.08 55.86Q49.08 55.86 49.14 55.86L50.16 54.48M48.54 55.80L48.12 54.18L46.32 55.08Q46.38 55.20 46.50 55.26Q46.98 55.44 47.52 55.56Q48.06 55.68 48.54 55.80M49.98 55.98L51.96 56.34Q52.14 56.28 52.26 56.28L50.58 54.66L49.68 55.98Q49.74 55.98 49.98 55.98ZM79.50 56.76Q79.38 56.76 79.14 56.52Q78.84 56.28 78.78 56.16Q78.66 55.86 78.51 55.53Q78.36 55.20 78.30 54.84Q78.30 54.84 78.30 54.72Q78.30 54.66 78.30 54.66Q78.36 54.06 78.36 53.46Q78.36 52.86 78.42 52.26Q78.42 51.42 78.42 50.58Q78.42 49.74 78.42 48.84Q78.36 47.16 78.24 45.42Q78.12 43.68 78.06 41.94Q78 40.14 78.03 38.34Q78.06 36.54 78.12 34.74Q78.12 34.14 78.15 33.60Q78.18 33.06 78.18 32.52Q78.18 30.12 78.18 27.72Q78.18 27.60 78.12 27.36Q78.12 26.64 78.21 25.95Q78.30 25.26 78.84 24.66Q79.44 24.06 80.10 23.97Q80.76 23.88 81.54 23.88Q81.72 23.88 81.78 23.88Q82.08 23.88 82.35 23.88Q82.62 23.88 82.92 23.88Q83.58 23.88 84.21 23.88Q84.84 23.88 85.50 23.88Q86.58 23.88 87.66 23.88Q88.74 23.88 89.82 23.94L89.82 23.94Q89.88 23.94 90.06 23.94Q90.84 23.94 91.53 24.03Q92.22 24.12 92.76 24.72Q93.12 25.08 93.24 25.50L94.26 25.68Q95.10 25.08 96.06 24.60Q97.14 23.82 98.91 23.49Q100.68 23.16 102.51 23.19Q104.34 23.22 105.54 23.64Q106.92 23.94 108.21 24.45Q109.50 24.96 110.58 25.86Q110.58 25.86 110.64 25.86Q110.64 25.86 110.64 25.86Q112.14 27.18 113.04 29.10Q113.94 31.02 114.66 32.82Q114.66 32.82 114.66 32.82Q114.72 32.88 114.72 32.88Q115.08 34.14 115.32 35.40Q115.56 36.66 115.62 37.98Q115.68 38.70 115.68 39.45Q115.68 40.20 115.68 40.92Q115.68 41.34 115.68 41.73Q115.68 42.12 115.68 42.54Q115.68 42.90 115.68 43.26Q115.68 43.62 115.74 43.98Q115.74 45.12 115.74 46.29Q115.74 47.46 115.68 48.66Q115.68 48.66 115.68 48.66Q115.68 48.66 115.68 48.66Q115.62 49.86 115.53 51.03Q115.44 52.20 115.38 53.40Q115.38 53.58 115.38 53.82Q115.32 54.48 115.23 55.11Q115.14 55.74 114.60 56.28Q114.06 56.88 113.40 56.97Q112.74 57.06 112.02 57.06Q111.84 57.06 111.78 57.06Q110.64 57.06 109.56 57.06Q108.48 57.06 107.34 57.06Q106.20 57 105.06 57.03Q103.92 57.06 102.72 57.06Q102.66 57.06 102.42 57.06Q101.64 57.06 100.92 57Q100.20 56.94 99.54 56.40Q99.18 56.10 99 55.68Q98.82 55.26 98.70 54.84Q98.58 54.48 98.55 54.15Q98.52 53.82 98.52 53.46Q98.40 52.20 98.40 51.06L98.40 51.06Q98.40 51.06 98.40 51.06Q98.40 48.72 98.52 46.29Q98.64 43.86 98.88 41.52Q98.94 40.32 98.94 39.24Q98.94 39.12 98.94 38.88Q98.94 38.46 98.91 37.98Q98.88 37.50 98.76 37.08Q98.58 36.54 98.34 36.30Q97.80 35.70 96.72 35.64Q95.64 35.58 95.10 36.18Q94.62 36.78 94.59 37.62Q94.56 38.46 94.62 39.30Q94.68 39.54 94.68 39.78Q94.68 40.02 94.68 40.26Q94.68 41.04 94.71 41.82Q94.74 42.60 94.74 43.44Q94.80 44.16 94.80 44.88Q94.80 45.60 94.80 46.32Q94.80 47.28 94.77 48.27Q94.74 49.26 94.68 50.22Q94.68 50.46 94.65 50.70Q94.62 50.94 94.62 51.18Q94.62 51.78 94.59 52.38Q94.56 52.98 94.56 53.58Q94.56 53.76 94.56 54Q94.56 54.72 94.47 55.38Q94.38 56.04 93.84 56.64Q93.24 57.24 92.55 57.33Q91.86 57.42 91.08 57.36Q90.96 57.36 90.84 57.36Q90.24 57.36 89.64 57.30Q87.42 57.18 85.14 57.12Q82.86 57.06 80.64 57Q80.64 57 80.58 57Q80.46 56.94 80.46 56.94L79.50 56.76M103.68 24.72L102.18 24.60Q102.06 24.60 101.94 24.60L102.84 26.40L104.64 24.90Q104.22 24.78 103.68 24.72M99.18 26.22L102.36 26.46L101.46 24.72L99.18 26.22M97.50 25.68L98.46 26.10L100.20 24.96L97.50 25.68M103.26 26.70L106.74 27.96L105.36 25.08Q105.30 25.08 105.24 25.02L103.26 26.70M81.42 25.32Q81.66 25.32 81.72 25.08Q81.72 25.08 81.66 25.08L80.82 25.32Q80.94 25.32 81.42 25.32M105.96 25.20L106.68 26.70L106.44 25.38Q106.20 25.26 105.96 25.20M82.62 25.32L85.14 27.78L86.10 25.32Q85.86 25.32 85.44 25.32Q84.84 25.32 84.21 25.32Q83.58 25.32 82.92 25.32Q82.80 25.32 82.62 25.32M87 25.32L87.60 26.94L89.22 25.38Q88.68 25.32 88.11 25.32Q87.54 25.32 87 25.32M90.36 25.32L90.66 27.06L92.04 26.76Q92.04 26.04 91.74 25.74Q91.50 25.44 91.11 25.38Q90.72 25.32 90.36 25.32M89.88 25.38L88.14 27.12L90.18 27.12L89.88 25.38M82.14 27.06L84.36 27.72L82.14 25.50L82.14 27.06M87.24 27.24L86.52 25.56L85.62 27.78L87.24 27.24M107.40 28.08L108.60 27.66L106.98 25.74L107.40 28.08M107.64 25.80L108.72 27.06L108.66 26.28Q108.18 25.98 107.64 25.80M80.88 26.76L79.74 25.80Q79.62 26.04 79.56 26.40L80.88 26.76M95.82 26.46L97.62 26.22L96.84 25.86L95.82 26.46M93.36 25.86Q93.42 26.04 93.48 26.28Q93.66 26.10 93.84 25.98L93.36 25.86M110.28 27.54L109.32 26.70Q109.26 26.64 109.20 26.58L109.26 27.60L110.64 27.96Q110.46 27.72 110.28 27.54M100.50 31.08L102.54 26.88L98.64 26.58L100.50 31.08M79.62 30.00L81.54 27.30L79.56 26.76Q79.56 26.94 79.56 27.30Q79.56 27.54 79.62 27.66Q79.62 28.86 79.62 30.00M102.96 26.94L103.92 30.00L106.80 28.38L102.96 26.94M97.56 31.56L100.14 31.20L98.52 27.18L97.56 31.56M90.66 27.54L92.46 31.74L94.26 27.48Q94.02 27.66 93.78 27.90Q93.60 28.02 93.42 28.38Q93.24 28.62 93.06 28.80Q92.88 28.98 92.52 28.98Q91.92 28.98 91.92 28.65Q91.92 28.32 91.98 27.96Q92.04 27.66 92.04 27.54Q92.04 27.42 92.04 27.30L90.66 27.54M92.82 31.80L96.90 31.62L94.68 27.36L92.82 31.80M102.72 27.42L100.98 30.96L103.56 30.12L102.72 27.42M84.90 28.26L82.20 27.42L82.86 30.54L84.90 28.26M87.72 27.54L88.86 31.08L90.30 27.48L87.72 27.54M85.44 28.26Q85.44 28.32 85.38 28.32Q85.38 28.32 85.32 28.44L85.26 30.36L87.24 27.60L85.44 28.26M82.56 30.78L81.72 27.66L79.62 30.66Q79.62 30.72 79.62 31.02Q79.62 30.96 79.62 30.84L81.78 27.84L82.56 30.78M85.56 30.54L88.50 31.14L87.48 27.90L85.56 30.54M109.32 27.96L111.36 30.90L111.48 29.28Q111.24 28.80 110.94 28.38L109.32 27.96M107.46 28.44L107.88 30.00L108.78 27.96L107.46 28.44M89.22 31.26L92.04 31.74L90.48 28.02L89.22 31.26M109.08 28.26L108.12 30.36L110.94 30.90L109.08 28.26M104.46 30.24L107.04 28.74L107.58 30.42L107.04 28.62L104.46 30.24M84.96 28.80L83.28 30.60L84.90 30.48L84.96 28.80M111.84 29.82L111.72 31.08L112.50 31.26Q112.14 30.48 111.84 29.82M107.40 30.78L104.16 30.54L105.24 34.98L107.40 30.78M103.56 30.66L100.86 31.50L102.60 34.80L103.56 30.66M108.06 30.84L108.78 34.74L111.06 31.44L108.06 30.84M84.90 30.96L83.10 31.14L85.08 34.62L84.90 30.96M88.50 31.62L85.86 31.08L87.60 33L88.50 31.62M82.20 31.20L79.62 31.38Q79.62 31.98 79.62 32.58Q79.62 32.76 79.62 32.94L79.80 34.44L82.20 31.20M108.36 35.10L107.64 31.26L105.60 35.40L108.36 35.10M104.88 35.40L103.86 31.32L102.96 35.22L104.88 35.40M84.96 35.34L82.68 31.32L80.10 34.86L84.96 35.34M87.30 33.36L85.44 31.38L85.62 35.10L87.30 33.36M111.48 31.62L109.26 34.86L113.16 33.48L111.48 31.62M112.68 31.68Q112.80 32.04 112.95 32.40Q113.10 32.76 113.46 33.24L113.40 32.40L113.22 31.80L112.68 31.68M99.90 31.68L97.74 32.04L98.76 33.18L99.90 31.68M91.08 33.12L88.92 31.80L88.08 33.12L91.08 33.12M102.12 34.92L100.44 31.80L99.12 33.48L102.12 34.92M92.10 32.22L90 31.86L91.80 33L92.10 32.22M96.66 32.10L93.06 32.28L94.86 33.90L96.66 32.10M98.28 33.36L97.26 32.22L95.58 33.90L98.28 33.36M92.10 33.24Q92.10 33.24 92.10 33.24Q92.10 33.30 92.16 33.30L94.20 33.78L92.10 33.24M91.68 33.48L87.84 33.54L89.22 37.56L91.68 33.48M94.68 34.44L92.16 33.66L93.18 37.32Q93.24 36.78 93.42 36.24Q93.60 35.70 94.02 35.28Q94.14 35.10 94.32 34.92Q94.50 34.74 94.68 34.44M99.18 35.04L98.58 33.72L96.42 34.20Q98.04 34.08 99.18 35.04M100.50 37.32Q100.56 37.32 100.56 37.32L102.36 35.46L99 33.78L100.50 37.32M85.62 35.64Q85.62 35.64 85.62 35.70Q85.62 35.70 85.56 35.76L86.34 37.08L87.36 33.78L85.62 35.64M91.86 33.96L89.58 37.74L93.18 39.06Q93.18 38.70 93.18 38.52L91.86 33.96M86.64 37.20L88.86 37.56L87.66 34.14L86.64 37.20M113.46 34.32L111.36 38.22L114.12 38.82L113.46 34.32M85.14 35.76L80.16 35.22L83.58 37.44L85.14 35.76M79.56 35.22Q79.56 35.22 79.50 35.22Q79.50 35.76 79.50 36.12L79.56 35.22M79.80 36.96L82.56 37.32L79.92 35.46L79.80 36.96M108.48 35.46Q108.48 35.46 108.48 35.46L105.42 35.82L108.06 38.58L108.48 35.46M105 35.88Q105 35.82 104.94 35.82L102.96 35.58L104.82 37.92L105 35.88M101.04 37.38L104.28 37.92L102.66 35.82L101.04 37.38M108.42 38.52L110.58 38.22L108.84 35.94L108.42 38.52M85.32 36.06L84.12 37.38L85.98 37.20L85.32 36.06M105.12 38.04L107.46 38.46L105.36 36.24L105.12 38.04M79.92 37.50L81 41.40L83.10 37.86L79.92 37.50M83.76 37.92L83.94 41.28L85.92 37.68L83.76 37.92M86.76 37.68L88.86 41.70L88.98 38.04L86.76 37.68M100.86 37.86L102.06 41.10L104.40 38.40L100.86 37.86M88.68 42.30L86.34 37.86L84.12 41.94L88.68 42.30M89.64 38.28L90.66 40.68L93.12 39.54L89.64 38.28M80.58 41.70L79.68 38.46L79.44 40.44Q79.44 40.98 79.50 41.52L80.58 41.70M101.64 41.40L100.56 38.46L100.38 39.54Q100.38 40.50 100.32 41.52L101.64 41.40M83.52 41.88L83.34 38.46L81.36 41.76L83.52 41.88M105.18 38.52L105.54 40.80L107.58 38.94L105.18 38.52M110.70 38.70L108.60 39L110.22 40.74L110.70 38.70M105.06 41.04L104.70 38.76L102.54 41.28L105.06 41.04M114.06 39.30L111.84 38.82L113.58 40.32L114.06 39.30M113.10 40.50L111.12 38.82L110.64 40.92L113.10 40.50M90.24 40.92L89.46 39L89.34 41.94L90.24 40.92M109.80 40.98L108.12 39.18L106.02 41.04L109.80 40.98M93.24 39.96L91.26 40.92L93.24 41.46Q93.24 40.80 93.24 40.26Q93.24 40.14 93.24 39.96M114.24 40.50L113.88 40.80Q113.88 40.80 113.82 40.80Q113.82 40.80 113.82 40.86L114.24 43.50Q114.24 42.96 114.24 42.60Q114.24 42.18 114.24 41.76Q114.24 41.34 114.24 40.92Q114.24 40.68 114.24 40.50M113.46 41.16L110.82 44.04L114.12 44.70L113.46 41.16M110.10 41.34L105.60 41.40L108.66 45.90L110.10 41.34M105.18 41.40L102.30 41.70L104.40 45.30L105.18 41.40M90.60 41.52L89.22 45.24L92.52 44.28L90.60 41.52M90.18 41.52L89.34 42.60Q89.34 42.66 89.34 42.66Q89.34 42.72 89.22 42.84L89.04 44.70L90.18 41.52M101.34 44.52L101.76 41.70L100.26 41.88Q100.26 42.18 100.20 42.48L101.34 44.52M93.30 43.08Q93.30 42.90 93.30 42.72L93.54 41.88L93.24 41.82Q93.30 42.18 93.30 42.72L92.88 44.16Q92.88 44.16 92.94 44.16L93.30 43.08M80.76 42.12Q80.70 42.12 80.70 42.06L79.50 41.88Q79.50 41.88 79.50 41.88Q79.50 42.66 79.56 43.56L79.86 45.18L80.76 42.12M105.48 41.88L104.70 45.66L108.18 46.02L105.48 41.88M83.52 42.24L81.18 42.12L82.98 44.40L83.58 42.30Q83.58 42.24 83.52 42.24M101.76 45L102.12 42.30L104.16 45.66L102.06 42.12L101.76 45M86.64 44.40Q86.64 44.34 86.64 44.34L88.80 42.72L84.12 42.30L86.64 44.40M81.06 42.54L80.22 45.30L82.62 44.52L81.06 42.54M83.88 42.54L83.34 44.40L85.98 44.34L83.88 42.54M110.10 42.72L109.32 45.06L110.10 44.10L110.10 42.72M100.02 45L101.16 44.88L100.20 43.14Q100.08 44.04 100.02 45M87.06 44.52L88.62 45.24L88.80 43.14L87.06 44.52M93.30 43.80L93.12 44.46Q93.12 44.46 93.12 44.52Q93.12 44.52 93.06 44.58L93.36 46.32Q93.36 45.66 93.36 45.06Q93.36 44.46 93.30 43.80M110.94 44.52L113.46 47.94L114.12 45.18L110.94 44.52M108.96 46.32L110.28 48.90L110.10 44.82L108.96 46.32M83.52 44.88L85.20 47.40L86.22 44.82L83.52 44.88M113.22 48.42L110.64 44.94L110.82 49.56L113.22 48.42M82.62 45L80.28 45.78L81.72 47.46L82.62 45M87.06 45.06L88.32 47.70L88.56 45.72L87.06 45.06M92.76 45.06L91.02 48.18L93.30 48.42Q93.36 48.24 93.36 48.06L92.76 45.06M84.78 47.64L83.10 45.18L82.14 47.70L84.78 47.64M88.02 48.18L86.58 45.18L85.56 47.70L88.02 48.18M99.96 47.70L101.10 45.36L100.02 45.48Q99.96 45.78 99.96 46.08L99.96 47.70M103.86 45.96L101.76 45.36L101.82 47.34L103.86 45.96M101.34 47.70L101.28 46.02L100.26 48.18L101.34 47.70M108.12 46.50L104.70 46.14L105.24 49.44L108.12 46.50M81.36 47.82L79.98 46.14L79.74 46.98Q79.80 47.64 79.86 48.18L81.36 47.82M104.76 49.44L104.22 46.26L102 47.82L104.76 49.44M90.24 48.18L88.98 46.26L88.74 48.30L90.24 48.18M110.16 49.68L108.60 46.74L105.66 49.68L110.16 49.68M114.18 48.30L114.18 47.04L113.88 48.24L114.18 48.30M83.40 53.10L85.02 48L81.96 48.12L83.40 53.10M101.40 48.06L99.96 48.84L101.40 51L101.40 48.06M103.86 52.86L104.82 49.92L101.82 48.12L103.86 52.86M79.86 51.48L81.54 48.12L79.86 48.60Q79.86 48.66 79.86 48.84Q79.86 49.50 79.86 50.16Q79.86 50.82 79.86 51.48M90.48 48.48L88.68 48.66Q88.62 48.66 88.62 48.66L90.18 52.32L90.48 48.48M90.90 48.54L92.40 51.96L93.30 49.56Q93.30 49.14 93.30 48.78L90.90 48.54M79.80 53.10L83.10 53.28L81.72 48.60L79.86 52.32Q79.80 52.80 79.80 53.10M85.26 48.60L83.82 52.92L86.22 51.30L85.26 48.60M114.24 48.66L113.76 48.72L114.12 50.34Q114.18 49.92 114.21 49.50Q114.24 49.08 114.24 48.66M103.38 52.56L101.82 48.96L101.76 51.24L103.38 52.56M86.88 51.30L89.82 52.38L88.38 49.02L86.88 51.30M90.54 52.50L92.04 52.08L90.84 49.32L90.54 52.50M113.58 49.50L112.80 52.50L114 52.02Q114 51.78 114.06 51.54L113.58 49.50M99.96 49.50L99.96 52.68L101.22 51.36L99.96 49.50M110.10 50.04L105.54 50.04L107.34 51.60L110.10 50.04M107.88 51.72L111.96 52.56L110.52 50.22L107.88 51.72M105.06 50.28L104.34 53.10L105.18 50.34L106.98 51.78L105.06 50.28M93.24 50.76L92.64 52.32L92.70 53.04L93.12 54.72Q93.18 54.54 93.15 54.36Q93.12 54.18 93.12 54Q93.12 53.70 93.12 53.58Q93.12 52.98 93.15 52.38Q93.18 51.78 93.18 51.12Q93.18 50.94 93.24 50.76M103.56 55.62Q103.56 55.62 103.62 55.44L101.82 51.78L103.56 55.62M86.82 51.78L87.30 55.32L89.82 52.92L86.82 51.78M103.32 55.92L103.14 55.62Q103.20 55.62 103.26 55.62L101.46 51.90L103.14 55.62Q102.90 55.62 102.72 55.62Q102.60 55.62 102.30 55.62Q101.82 55.68 101.34 55.65Q100.86 55.62 100.50 55.26Q100.44 55.26 100.44 55.56L103.32 55.92M83.70 53.64L84.18 55.44L85.86 52.14L83.70 53.64M86.82 55.56L86.40 52.20L84.60 55.62Q85.26 55.68 85.80 55.68L86.82 55.56M108 52.26L110.64 54.66L112.02 53.10L108 52.26M100.26 54.66L100.98 52.32L99.96 53.40L100.26 54.66M104.28 53.52L104.82 55.50L106.62 52.38L104.28 53.52M112.80 53.04L113.82 54.90L113.94 53.94Q113.94 53.88 113.94 53.76Q113.94 53.52 113.94 53.34Q113.94 52.98 113.94 52.56L112.80 53.04M90.66 52.92L92.46 55.02L92.16 52.56L90.66 52.92M113.46 55.32L112.38 53.34L111.12 54.84L113.46 55.32M80.70 54.66L82.50 53.70L79.80 53.58Q79.80 53.70 79.80 53.70L80.70 54.66M83.40 55.62Q83.46 55.62 83.55 55.62Q83.64 55.62 83.76 55.62L83.22 53.88L81.24 54.90L83.40 55.62M104.40 55.62L104.10 54.54L103.92 55.62Q104.16 55.62 104.40 55.62M79.98 55.20L80.34 55.02L79.80 54.84Q79.86 54.96 79.98 55.20M105.06 55.80L106.20 55.62Q106.56 55.56 106.86 55.62L110.28 54.84L106.20 55.62Q105.96 55.62 105.69 55.62Q105.42 55.62 105.06 55.80M112.98 55.56L110.82 55.20Q110.76 55.20 110.76 55.26L110.70 55.62Q111.24 55.62 111.78 55.62Q111.84 55.62 112.14 55.62Q112.32 55.62 112.56 55.62Q112.80 55.62 112.98 55.56M82.14 55.56L81.12 55.26L81.42 55.56Q81.78 55.56 82.14 55.56M80.58 55.26L80.28 55.44L80.70 55.56Q80.76 55.56 80.88 55.56L80.58 55.26M110.34 55.38L109.56 55.62Q109.74 55.62 109.95 55.59Q110.16 55.56 110.34 55.38M87.42 55.68L91.14 55.68L91.98 55.56L87.42 55.68ZM119.76 57.18Q119.64 57.18 119.28 57Q118.98 56.76 118.92 56.58Q118.80 56.22 118.62 55.92Q118.44 55.62 118.38 55.20Q118.32 54.84 118.35 54.48Q118.38 54.12 118.44 53.76Q118.44 53.16 118.47 52.53Q118.50 51.90 118.50 51.24L118.50 51.24L118.50 51.24Q118.62 49.44 118.59 47.64Q118.56 45.84 118.50 44.04Q118.44 40.50 118.41 36.96Q118.38 33.42 118.56 29.88Q118.56 29.28 118.56 28.68Q118.56 28.08 118.56 27.48Q118.62 26.64 118.68 25.86Q118.74 25.08 119.34 24.42Q120.18 23.58 121.26 23.58Q122.34 23.58 123.36 23.52L123.36 23.52L123.36 23.52L123.36 23.52Q123.36 23.52 123.36 23.52Q126.30 23.40 128.94 23.40L129 23.40Q129 23.40 129 23.40Q129 23.40 129 23.40Q129.54 23.40 130.11 23.37Q130.68 23.34 131.22 23.34Q131.22 23.34 131.34 23.34Q131.40 23.34 131.40 23.34Q132.54 23.58 133.05 24.09Q133.56 24.60 133.74 25.62Q134.52 25.02 135.36 24.60Q136.44 23.88 138 23.55Q139.56 23.22 141.15 23.22Q142.74 23.22 143.94 23.58Q145.56 24 147.15 24.84Q148.74 25.68 149.88 27.06Q150.12 27.36 150.42 27.78Q150.84 27.60 151.20 27.48Q152.52 26.22 154.02 25.38Q155.10 24.60 156.66 24.21Q158.22 23.82 159.84 23.79Q161.46 23.76 162.66 24.06Q164.28 24.36 165.84 25.05Q167.40 25.74 168.54 26.88Q168.54 26.88 168.54 26.88Q168.54 26.88 168.54 26.88Q168.54 26.88 168.54 26.88Q168.54 26.88 168.54 26.88Q169.38 27.72 170.10 29.43Q170.82 31.14 171.33 33.15Q171.84 35.16 172.11 37.05Q172.38 38.94 172.38 40.14L172.38 40.14Q172.38 40.14 172.38 40.14Q172.38 40.14 172.38 40.14Q172.32 41.34 172.32 42.57Q172.32 43.80 172.26 45Q172.14 46.20 171.96 47.43Q171.78 48.66 171.60 49.92Q171.42 50.76 171.33 51.63Q171.24 52.50 171.18 53.34Q171.18 54.18 171.12 54.93Q171.06 55.68 170.40 56.28Q169.80 56.94 169.02 57Q168.24 57.06 167.46 57.06Q167.16 57.06 166.86 57.06Q166.56 57.06 166.26 57.06Q166.26 57.06 166.26 57.06L166.26 57.06Q166.26 57.06 166.26 57.06Q164.82 57.12 163.38 57.06Q161.94 57 160.50 57Q160.50 57 160.50 57Q160.50 57 160.50 57Q159.90 57 159.30 57.06Q158.70 57.12 158.10 57Q157.68 56.88 157.26 56.73Q156.84 56.58 156.48 56.28Q156.12 55.92 155.97 55.53Q155.82 55.14 155.76 54.66Q155.70 54.30 155.73 54Q155.76 53.70 155.76 53.34Q155.76 52.74 155.76 52.17Q155.76 51.60 155.76 51L155.76 51Q155.76 49.20 155.79 47.40Q155.82 45.60 155.94 43.80Q155.94 43.80 155.94 43.80Q156.06 42.36 156.18 40.95Q156.30 39.54 156.12 38.10Q156.12 38.10 156.12 38.10Q156.12 38.10 156.12 38.10L156.12 38.10Q156.06 37.80 156.06 37.50Q156.06 37.20 155.88 36.90Q155.46 35.94 154.38 35.94Q153.42 35.94 153 36.84Q152.82 37.26 152.85 37.86Q152.88 38.46 152.88 39Q152.88 40.14 152.85 41.34Q152.82 42.54 152.76 43.74Q152.76 43.74 152.76 43.74Q152.76 43.74 152.76 43.74Q152.58 45.72 152.61 47.76Q152.64 49.80 152.70 51.84Q152.70 51.84 152.70 51.84Q152.70 51.84 152.70 51.84Q152.70 51.84 152.70 51.84Q152.70 52.14 152.70 52.44Q152.70 52.74 152.70 53.04Q152.76 53.88 152.73 54.66Q152.70 55.44 152.16 56.10Q151.56 56.82 150.81 56.91Q150.06 57 149.28 57Q148.20 57 147.06 57.03Q145.92 57.06 144.84 57.06Q143.94 57.06 143.07 57.09Q142.20 57.12 141.30 57.12Q140.52 57.12 139.74 57.06Q138.96 57 138.30 56.34Q137.64 55.74 137.58 54.99Q137.52 54.24 137.46 53.40Q137.46 53.10 137.46 52.83Q137.46 52.56 137.40 52.26Q137.10 49.50 137.07 46.26Q137.04 43.02 137.34 40.26Q137.40 39.66 137.49 39Q137.58 38.34 137.52 37.68L136.98 36.30Q136.68 36 136.08 36Q135.12 36 134.64 37.02Q134.52 37.26 134.49 37.56Q134.46 37.86 134.46 38.10Q134.40 38.70 134.37 39.27Q134.34 39.84 134.34 40.44Q134.34 40.44 134.34 40.44Q134.34 40.50 134.34 40.50Q134.10 43.32 134.22 46.26Q134.34 49.20 134.46 52.02Q134.46 52.02 134.46 52.05Q134.46 52.08 134.46 52.08L134.46 52.08Q134.46 52.38 134.46 52.68Q134.46 52.98 134.46 53.28Q134.46 54.12 134.43 54.93Q134.40 55.74 133.80 56.40Q133.20 57.06 132.42 57.15Q131.64 57.24 130.80 57.30Q130.20 57.30 129.60 57.30L129.60 57.30Q127.62 57.36 125.61 57.33Q123.60 57.30 121.62 57.24L121.62 57.24L121.56 57.24L119.76 57.18M141 24.60L141 24.66L141.06 24.66L141 24.60M139.68 28.20L139.68 28.20L142.62 27.84L142.68 27.84L142.62 27.72L139.74 28.08L139.68 28.14L139.68 28.20M143.58 24.96Q142.68 24.72 141.48 24.66Q141.84 25.50 142.23 26.22Q142.62 26.94 142.86 27.48Q143.34 26.70 143.73 26.07Q144.12 25.44 144.24 25.14Q143.94 25.08 143.58 24.96Q143.58 24.96 143.58 24.96Q143.58 24.96 143.58 24.96M137.46 25.38L139.44 27.84L140.58 24.66Q140.52 24.66 140.40 24.72L137.46 25.38M131.16 24.84Q131.40 25.26 131.61 25.65Q131.82 26.04 132 26.34L132.36 26.34Q132.36 26.16 132.36 25.98Q132.24 25.32 132.03 25.11Q131.82 24.90 131.16 24.78L131.10 24.78Q131.10 24.78 131.16 24.84Q131.16 24.84 131.16 24.84M122.10 24.96Q121.80 24.96 121.47 24.99Q121.14 25.02 120.84 25.14Q121.50 25.02 122.10 24.96M163.98 25.86Q164.46 26.04 165 26.22L165.36 25.92Q164.88 25.68 164.40 25.47Q163.92 25.26 163.62 25.08Q163.74 25.38 163.98 25.86M127.98 25.14L127.98 26.16Q128.70 25.80 129.33 25.50Q129.96 25.20 130.02 25.14L127.98 25.14M124.26 25.14Q125.10 25.62 125.94 26.10L127.08 25.14L124.26 25.14M120.42 25.56L121.62 27.06Q121.98 26.52 122.34 25.98Q122.70 25.44 122.82 25.20L120.42 25.56M128.76 26.34L131.58 26.34Q131.40 25.98 131.22 25.68Q131.04 25.38 130.92 25.20Q130.20 25.62 129.51 25.95Q128.82 26.28 128.76 26.34M123.42 25.20L122.16 27.12L125.28 26.34Q124.80 26.04 124.29 25.74Q123.78 25.44 123.42 25.20M160.14 25.26Q160.38 26.10 160.44 26.40L162.06 25.38Q161.22 25.20 160.14 25.26M158.82 25.32Q158.28 25.74 157.80 26.13Q157.32 26.52 157.20 26.64L160.02 26.52Q159.84 25.98 159.75 25.56Q159.66 25.14 159.66 25.26Q159.24 25.26 158.82 25.32M144.72 25.32L143.40 27.48Q144.18 27.24 144.90 26.97Q145.62 26.70 146.10 26.52L145.32 25.56Q145.02 25.44 144.72 25.32M126.54 26.22L127.50 26.34L127.50 25.44L126.54 26.22M156.30 25.86Q157.26 25.74 157.50 25.65Q157.74 25.56 157.86 25.44Q157.02 25.56 156.30 25.86M161.10 26.58L163.92 26.70Q163.74 26.28 163.59 25.92Q163.44 25.56 163.50 25.74Q163.14 25.62 162.78 25.56Q162.18 25.92 161.70 26.22Q161.22 26.52 161.10 26.58M135.72 26.40L136.50 26.76Q137.28 27.06 137.94 27.36Q138.60 27.66 138.72 27.72Q138.24 27.12 137.79 26.55Q137.34 25.98 136.98 25.56L135.72 26.40M120 26.40Q120 26.64 120 26.94Q120 27.24 120 27.42L121.14 27.30L120.12 25.92L120 26.40M155.34 26.22L154.62 27.54L156.18 26.76Q156 26.40 155.88 25.98Q155.58 26.10 155.34 26.22M146.46 26.22L146.52 26.16L146.34 26.04L146.46 26.22M146.88 26.52L147.60 26.88Q147.30 26.58 146.94 26.40L146.88 26.52M164.76 26.88L165.54 27.18Q166.26 27.42 166.80 27.63Q167.34 27.84 167.22 27.78L166.44 27.00Q165.96 26.70 165.36 26.40Q165.12 26.58 164.94 26.73Q164.76 26.88 164.76 26.88M127.56 26.70L127.50 26.70L126.12 26.52L126.12 26.58L126.06 26.76L125.70 30.72L127.56 26.70L127.56 26.70M121.86 27.54L123.90 30.06Q123.96 30.06 123.96 30.06L125.70 26.64L125.70 26.58L121.86 27.54L121.86 27.54M132.78 28.38Q132.72 28.38 132.66 28.38Q132.90 29.22 133.14 30.03Q133.38 30.84 133.56 31.38L135.06 26.70L135 26.58L134.82 26.58Q134.40 26.88 134.04 27.24Q134.04 27.24 134.01 27.30Q133.98 27.36 133.74 27.66L133.74 27.96Q133.74 28.08 133.56 27.96Q133.26 28.38 132.78 28.38M135.42 26.70L135.84 28.26Q136.08 29.16 136.29 30.00Q136.50 30.84 136.68 31.56L136.68 31.56L139.26 28.44L139.20 28.32L135.42 26.70L135.42 26.70M132.18 26.82L132.30 27.24Q132.36 26.94 132.36 26.70L132.24 26.70L132.18 26.82M127.98 26.70L130.98 31.50L131.82 26.82L131.76 26.70L128.04 26.70L127.98 26.70M153.42 27.48L153.90 27.84L154.50 26.76Q153.96 27.12 153.42 27.48M145.38 31.08L143.16 27.96L143.10 28.02L143.10 28.08L145.32 31.20L145.38 31.08M148.74 27.96Q148.74 27.96 148.71 27.90Q148.68 27.84 148.44 27.60L146.70 26.88L146.70 26.88Q147 27.72 147.24 28.53Q147.48 29.34 147.72 30.00L147.72 30.00L149.22 28.56Q148.98 28.26 148.74 27.96M156.72 27.00L158.88 30.54Q159.24 29.58 159.54 28.65Q159.84 27.72 160.14 26.94L160.14 26.88Q159.18 26.94 158.31 26.94Q157.44 26.94 156.72 27.00L156.72 27.00M160.56 26.88L162.96 31.32L164.10 27.18L164.04 27.06L160.56 26.88L160.56 26.88M125.88 31.14L127.44 31.26Q128.34 31.38 129.18 31.44Q130.02 31.50 130.56 31.50L127.80 27.06L125.88 31.14M164.46 27.18L165.48 31.50L165.48 31.50Q166.14 30.72 166.80 29.94Q167.46 29.16 168 28.50L167.88 28.38Q166.98 28.08 166.11 27.75Q165.24 27.42 164.46 27.12L164.46 27.18M154.26 28.14L154.56 28.98Q154.86 29.82 154.92 29.94L156.24 27.12L154.32 28.14L154.26 28.14M133.86 31.56L136.32 31.56L135.24 27.36L133.86 31.56M159.24 30.66L162.54 31.26L160.38 27.36L159.24 30.66M155.16 30.24L156.06 30.30Q156.78 30.36 157.44 30.45Q158.10 30.54 158.46 30.54L156.48 27.36L155.16 30.24M146.58 27.54L146.34 28.56Q146.16 29.28 145.98 29.97Q145.80 30.66 145.74 31.02L147.36 30.12Q147.12 29.28 146.88 28.53Q146.64 27.78 146.58 27.54M131.34 31.56L133.26 31.56Q132.90 30.36 132.54 29.25Q132.18 28.14 132.06 27.60L131.34 31.56M124.26 30.24L125.34 30.96L125.58 27.60L124.26 30.24M120 29.94L119.94 30.12L121.38 27.60Q120.96 27.66 120.54 27.69Q120.12 27.72 120 27.78Q120 28.32 120 28.86Q120 29.40 120 29.94L120 29.94Q120 29.94 120 29.94M153.12 27.90L153 27.84Q152.94 27.84 152.88 27.90L153.12 27.90M121.68 27.90L120 30.84L123.54 30.12L121.68 27.90M163.32 31.38L165.12 31.56Q164.82 30.42 164.58 29.40Q164.34 28.38 164.28 27.90L163.32 31.38M151.74 29.04Q151.74 29.04 151.50 29.34L152.64 30.30L153.66 28.26L152.46 28.26Q152.10 28.62 151.74 29.04M139.74 28.56L140.04 29.10Q140.22 29.52 140.40 29.88Q140.58 30.24 140.64 30.42L142.32 28.26L139.74 28.56M140.94 30.72L141.06 30.72L142.86 28.38L142.80 28.26L140.94 30.66L140.94 30.72M145.14 31.32L142.92 28.26L142.86 28.38L144.96 31.32L145.14 31.32M153.90 28.56L152.94 30.42L153.12 30.42L153.96 28.74L153.90 28.56M153.96 28.74Q154.14 29.16 154.26 29.58Q154.38 30.00 154.50 30.30L154.62 30.30Q154.44 29.76 154.29 29.28Q154.14 28.80 154.08 28.62L153.96 28.74M139.44 28.74L137.28 31.38Q138.12 31.20 138.93 30.99Q139.74 30.78 140.34 30.60Q140.10 30.06 139.86 29.55Q139.62 29.04 139.44 28.74M168.18 28.80L167.40 29.76Q166.98 30.30 166.59 30.78Q166.20 31.26 166.14 31.32L168.96 30.42Q168.72 29.82 168.48 29.34Q168.30 29.04 168.18 28.80M149.46 28.92L149.40 28.86L148.20 30.06L150 30.12Q149.76 29.94 149.70 29.58Q149.64 29.22 149.46 28.92M150.90 30.18L152.04 30.24L151.32 29.64Q151.14 30.06 150.90 30.18M148.14 30.54L150.72 33.96L152.40 30.78L148.14 30.54M119.94 31.38L121.02 33.18Q121.68 32.46 122.31 31.74Q122.94 31.02 123.30 30.66L119.94 31.32L119.94 31.38M153 30.78L153.24 33.18L154.44 30.66L153 30.78M147.72 30.72L145.80 34.56Q147 34.50 148.20 34.38Q149.40 34.26 150.30 34.20L147.72 30.72M155.22 30.72L156.84 33.90L158.52 31.02Q157.62 30.96 156.72 30.87Q155.82 30.78 155.22 30.72M121.50 33.36L125.52 33.48L123.90 30.72Q123.24 31.44 122.58 32.16Q121.92 32.88 121.50 33.36M145.62 31.62L145.62 33.84L147.12 30.84L145.62 31.62M165.90 31.92L166.50 32.52Q167.58 33.54 168.30 34.14Q168.54 33.24 168.75 32.37Q168.96 31.50 169.08 30.90Q168.18 31.14 167.34 31.44Q166.50 31.74 165.90 31.92M152.88 33.96L152.94 33.84L153 33.84L153 33.84L152.94 33.84Q152.40 33.90 151.89 33.99Q151.38 34.08 151.08 34.08L151.02 34.26Q151.50 34.14 152.01 34.08Q152.52 34.02 152.88 33.96L152.88 33.96M153.48 33.84L156.42 34.08L154.80 30.96L153.48 33.84M141.12 31.08L142.38 33.78L144.84 31.68L141.12 31.08M137.16 31.92L139.08 33.24Q139.44 32.58 139.74 32.01Q140.04 31.44 140.22 31.14Q139.32 31.38 138.51 31.59Q137.70 31.80 137.16 31.92M139.50 33.42L140.10 33.54Q140.70 33.66 141.18 33.75Q141.66 33.84 141.90 33.90L140.70 31.32Q140.34 31.92 140.04 32.49Q139.74 33.06 139.50 33.42M158.94 31.32L157.32 34.02Q158.10 33.84 158.88 33.66Q159.66 33.48 160.20 33.36L158.94 31.32M169.38 31.62Q169.20 32.40 169.02 33.12Q168.84 33.84 168.78 34.26Q169.14 34.14 169.50 34.05Q169.86 33.96 170.04 33.90Q169.74 32.70 169.38 31.62M126.06 31.68L127.92 34.02L130.44 31.98Q129.18 31.92 128.01 31.83Q126.84 31.74 126.06 31.68M160.98 33.54L161.82 33.84Q162.48 34.02 163.08 34.20Q163.68 34.38 164.10 34.56L164.04 34.38Q163.20 34.14 162.39 33.87Q161.58 33.60 161.04 33.42Q161.58 33.06 162.09 32.64Q162.60 32.22 163.02 31.92L162.96 31.86Q162.96 31.86 162.96 31.86Q162.96 31.86 162.96 31.86Q162.36 32.28 161.82 32.70Q161.28 33.12 160.92 33.42L161.04 33.42L160.98 33.54M163.38 31.86L163.62 32.40Q163.86 32.94 164.07 33.45Q164.28 33.96 164.34 34.08L165.06 32.04L163.38 31.86M131.22 31.98Q131.22 31.98 131.22 31.98Q131.22 31.92 131.22 31.92L131.22 31.92Q131.22 31.92 131.22 31.98Q131.16 31.98 131.16 31.98L131.16 32.04L131.22 31.98M142.86 34.08L145.14 34.56L145.14 32.04L142.86 34.08M134.34 32.04L136.02 33.18Q136.14 32.82 136.20 32.49Q136.26 32.16 136.32 32.04L134.34 32.04M131.70 33.30L132.54 33.30Q133.44 33.30 134.25 33.33Q135.06 33.36 135.42 33.36L133.56 32.10Q132.96 32.52 132.39 32.88Q131.82 33.24 131.70 33.30M136.50 33.36L138.42 33.36L136.80 32.22Q136.68 32.58 136.62 32.91Q136.56 33.24 136.50 33.36M165.54 32.22L164.70 34.50Q165.60 34.44 166.47 34.44Q167.34 34.44 167.82 34.38Q166.50 33.18 165.54 32.22M119.88 33.30L120.54 33.36L119.88 32.28Q119.88 32.76 119.88 33.30M126.18 33.54L126.90 33.78Q127.08 33.84 127.20 33.90L125.94 32.28L126.18 33.54M130.74 32.34L128.88 33.84Q129.36 33.72 129.84 33.60Q130.32 33.48 130.68 33.36Q130.74 32.70 130.74 32.34M119.88 33.66Q119.88 35.04 119.88 36.66L120.78 33.78L120.72 33.72L120.72 33.72L119.88 33.66M131.22 33.66L133.50 36.12Q134.10 35.04 135.18 34.68Q135.60 34.14 135.96 33.72L135.96 33.72L131.22 33.66M157.08 34.50L159.60 37.68L160.38 33.78L160.38 33.72L157.08 34.44L157.08 34.50M128.10 34.50L128.70 35.34Q129.54 36.48 130.20 37.38L130.74 33.72L130.74 33.72Q130.02 33.90 129.36 34.08Q128.70 34.26 128.22 34.44L128.10 34.50M136.74 34.62Q138.12 34.86 138.66 36.24Q138.72 35.58 138.81 34.95Q138.90 34.32 138.96 33.84L138.96 33.78L138.90 33.72L136.38 33.72Q136.38 33.72 136.38 33.78L136.74 34.62M121.14 33.78L123.18 38.70L125.70 33.90L125.70 33.84Q124.50 33.78 123.36 33.75Q122.22 33.72 121.20 33.72L121.14 33.78M139.38 33.78L141.78 38.40L142.08 34.26Q141.36 34.14 140.64 33.99Q139.92 33.84 139.38 33.78M160.80 33.84L162 37.62Q163.20 36.06 164.04 34.92Q163.14 34.62 162.30 34.35Q161.46 34.08 160.80 33.84M131.10 34.08L130.56 37.32L133.32 36.48L133.32 36.48Q132.66 35.76 132.06 35.13Q131.46 34.50 131.10 34.08M136.08 34.56L136.32 34.56L136.14 34.08L135.72 34.56Q135.90 34.56 136.08 34.56M156.66 34.50Q156.66 34.50 156.60 34.50L156.60 34.50L156.60 34.50Q155.76 34.44 154.89 34.35Q154.02 34.26 153.36 34.20L153.18 34.68Q153.72 34.50 154.44 34.50Q155.88 34.50 156.72 35.58L156.72 34.62L156.66 34.50M168.66 34.68L168.66 34.68Q168.66 34.74 168.60 34.74Q169.08 35.70 169.56 36.60Q170.04 37.50 170.34 38.10L170.34 36.48L170.22 34.68Q170.16 34.44 170.10 34.26Q169.68 34.38 169.29 34.50Q168.90 34.62 168.66 34.68L168.66 34.68M119.88 37.74L122.76 38.64L120.96 34.32Q120.72 35.22 120.42 36.12Q120.12 37.02 119.88 37.74M151.68 36.24Q152.10 35.34 152.76 34.92L152.94 34.32Q152.40 34.44 151.89 34.50Q151.38 34.56 150.96 34.62L151.56 36.66Q151.56 36.54 151.68 36.24M138.90 37.08Q138.96 37.50 138.96 37.95Q138.96 38.40 138.90 38.88L141.60 38.76L139.26 34.38Q139.20 35.04 139.11 35.70Q139.02 36.36 138.90 37.08M145.20 34.98Q145.14 34.98 145.14 34.92L142.68 34.38L144 37.38L145.20 34.98L145.20 34.98M160.62 34.50L159.96 37.74Q160.44 37.68 160.89 37.68Q161.34 37.68 161.64 37.62Q161.28 36.66 161.01 35.76Q160.74 34.86 160.62 34.50M145.62 34.98L145.62 34.98L145.62 34.98L147.90 38.40L147.90 38.40L147.90 38.40L150.54 34.50L145.62 34.98L145.62 34.98M125.70 34.74L123.60 38.76L125.64 38.58Q125.64 37.38 125.67 36.27Q125.70 35.16 125.70 34.74M164.52 34.86L164.52 34.92L165.72 38.04Q166.38 37.14 167.01 36.30Q167.64 35.46 168.18 34.74Q167.22 34.80 166.29 34.83Q165.36 34.86 164.52 34.86Q164.52 34.86 164.52 34.86M127.92 34.86L126.30 38.46L129.84 37.56Q129.30 36.78 128.79 36.06Q128.28 35.34 127.92 34.86M143.70 37.74Q143.70 37.68 143.76 37.68L142.50 34.92L142.50 35.16L143.70 37.80L143.70 37.80L143.70 37.74M142.38 34.92L142.08 38.76L142.20 38.70L142.50 35.16L142.38 34.92M150.72 34.92L148.38 38.34L151.44 38.16Q151.44 37.80 151.44 37.56L150.72 34.92M166.14 38.10L170.04 38.34L168.36 35.10L166.14 38.10M157.56 37.92L157.56 37.92L157.56 37.92Q157.62 38.22 157.62 38.58Q158.10 38.40 158.55 38.19Q159 37.98 159.30 37.86L157.08 35.10Q157.08 34.92 157.08 34.95Q157.08 34.98 157.08 36.12Q157.14 36.18 157.20 36.30Q157.38 36.72 157.44 37.11Q157.50 37.50 157.56 37.92L157.56 37.92L157.56 37.92L157.56 37.92Q157.56 37.92 157.56 37.92M162.36 37.68L163.26 37.74Q163.86 37.86 164.43 37.92Q165 37.98 165.30 37.98L164.28 35.22Q163.74 35.94 163.23 36.57Q162.72 37.20 162.36 37.68M144.30 37.62L147.36 38.28L145.44 35.34L144.30 37.62M130.56 37.86L131.70 40.50L133.08 37.56Q133.08 37.26 133.14 37.02L130.56 37.86M170.82 38.64Q170.82 38.70 170.88 38.70Q170.82 38.22 170.76 37.74L170.82 38.64M144.30 37.98L147.54 41.52L147.60 41.40L144.48 38.04L144.30 37.98M143.10 42.06L147.24 41.76L147.12 41.64L147.30 41.58L144 38.04L143.94 38.16L147.12 41.64L143.04 41.94L143.04 41.94L143.10 42.06M127.92 40.56L131.34 40.80L130.20 38.10L127.92 40.56M159.96 38.22L160.74 40.80Q160.98 40.08 161.22 39.36Q161.46 38.64 161.58 38.10Q161.10 38.16 160.68 38.19Q160.26 38.22 159.96 38.22M126.30 38.94L126.66 39.42Q127.20 40.08 127.44 40.38L129.54 38.10L126.30 38.94M162.42 38.16L164.88 41.70Q165 40.86 165.15 40.02Q165.30 39.18 165.36 38.52Q164.52 38.40 163.71 38.31Q162.90 38.22 162.42 38.16M142.26 39.12L142.86 41.22L143.58 38.28Q143.22 38.52 142.86 38.73Q142.50 38.94 142.26 39.12M120.30 38.40L122.04 40.50L122.82 39.12L120.30 38.40M161.04 41.46L164.46 42L162 38.40Q161.76 39.24 161.52 40.02Q161.28 40.80 161.04 41.46M157.62 40.92L157.74 41.40L159.18 38.46Q158.64 38.70 158.16 38.88Q157.68 39.06 157.68 39.12Q157.68 39.90 157.62 40.92M166.08 38.58L167.40 41.40Q168.12 40.68 168.81 39.99Q169.50 39.30 169.92 38.82L166.08 38.58M131.94 40.98Q131.94 41.04 131.94 41.04Q131.94 41.16 131.94 41.22L132.78 42.48Q132.84 41.40 132.90 40.38Q132.96 39.36 132.96 38.58L131.88 40.98L131.94 40.98M148.26 38.88L149.58 42.24L151.44 38.76Q151.44 38.76 151.44 38.79Q151.44 38.82 151.44 38.64L148.26 38.88M119.88 40.32L121.50 40.56L119.88 38.64Q119.88 39.42 119.88 40.32M159.60 38.64L158.10 41.82Q158.76 41.70 159.36 41.61Q159.96 41.52 160.44 41.46L159.60 38.64M170.82 38.88L170.82 38.88Q170.82 38.88 170.82 38.88L170.82 39.96Q170.88 40.74 170.94 40.98Q170.94 40.44 170.94 40.08Q170.94 40.08 170.94 40.08Q170.94 40.08 170.94 40.08Q170.94 40.08 170.94 40.08Q170.94 39.54 170.88 38.70L170.82 38.76L170.82 38.88M165.78 39.06L165.66 39.90Q165.54 40.50 165.45 41.10Q165.36 41.70 165.30 42.06L166.98 41.64L165.78 39.06M123.48 39.24L123.66 40.20Q123.78 40.74 123.87 41.16Q123.96 41.58 123.96 41.64Q124.38 40.92 124.77 40.23Q125.16 39.54 125.46 39.06L123.48 39.24M170.28 39.18L169.50 39.96Q169.02 40.44 168.57 40.89Q168.12 41.34 168 41.46L170.46 41.10Q170.40 40.50 170.34 39.96Q170.28 39.42 170.28 39.18M125.94 39.24L125.46 40.02Q125.10 40.62 124.80 41.13Q124.50 41.64 124.44 41.76Q125.16 41.46 125.85 41.16Q126.54 40.86 127.08 40.62Q126.36 39.78 125.94 39.24M138.96 39.36L140.34 40.62L141.42 39.24L138.96 39.36M140.76 40.92L141.36 41.16Q141.78 41.40 142.11 41.55Q142.44 41.70 142.50 41.70L141.84 39.54L140.76 40.92M149.82 42.78Q149.82 42.78 149.82 42.78Q149.82 42.84 149.82 42.90L151.26 44.16Q151.32 43.86 151.32 43.62Q151.38 42.60 151.41 41.58Q151.44 40.56 151.44 39.54L149.76 42.72L149.82 42.78M122.40 40.86L122.76 41.10Q123.06 41.40 123.30 41.58Q123.54 41.76 123.48 41.70Q123.36 41.04 123.24 40.47Q123.12 39.90 123.06 39.66L122.40 40.86M147.90 41.70L149.10 42.30L148.08 39.66Q148.02 40.20 147.99 40.74Q147.96 41.28 147.90 41.70M138.78 40.44Q138.66 41.28 138.60 42.18Q139.02 41.82 139.41 41.49Q139.80 41.16 140.04 40.98L138.84 39.90Q138.78 40.02 138.78 40.38Q138.78 40.38 138.78 40.44Q138.78 40.44 138.78 40.44M119.94 43.98L119.94 44.22L121.86 41.04L121.86 41.04L121.86 40.98L119.88 40.68Q119.94 41.52 119.94 42.36Q119.94 43.20 119.94 43.98Q119.94 43.98 119.94 43.98Q119.94 43.98 119.94 43.98L119.94 43.98M127.68 40.92L129.84 44.28L129.84 44.28L131.52 41.22Q131.52 41.22 131.52 41.22L127.68 40.86L127.68 40.92M124.08 42.36L127.32 46.20L127.32 40.98L127.26 40.92L124.14 42.30L124.08 42.36M123.60 42.36L123.60 42.24Q123.18 41.94 122.82 41.64Q122.46 41.34 122.22 41.16L122.52 45.48Q122.82 44.64 123.12 43.86Q123.42 43.08 123.66 42.48Q123.60 42.42 123.60 42.36L123.60 42.36M142.68 42.30Q142.62 42.30 142.62 42.24L142.62 42.24L142.62 42.18Q142.02 41.94 141.48 41.67Q140.94 41.40 140.58 41.22Q140.82 42.36 141.06 43.47Q141.30 44.58 141.48 45.42L142.68 42.36L142.68 42.30M170.82 41.76L170.82 44.64Q170.88 43.86 170.88 43.05Q170.88 42.24 170.94 41.40L170.82 41.76M167.52 41.94L169.38 45.48L170.46 41.70L170.46 41.46L167.58 41.88L167.52 41.94M138.60 42.72Q138.60 42.72 138.60 42.72Q138.54 42.96 138.54 43.20Q138.66 43.98 138.66 44.04L140.04 41.46L138.60 42.66L138.60 42.72M131.70 41.58L130.26 44.22Q131.10 44.04 131.82 43.92Q132.54 43.80 132.78 43.74Q132.78 43.44 132.78 43.14L131.70 41.58M127.68 41.58L127.68 46.02L129.54 44.46L127.68 41.58M120 45.06L120.48 45.18Q121.02 45.36 121.47 45.48Q121.92 45.60 122.22 45.72L121.92 41.70L120 44.88Q120 44.94 120 45.06M138.90 44.34L139.56 44.64Q140.04 44.88 140.49 45.12Q140.94 45.36 141.06 45.42Q140.88 44.34 140.64 43.32Q140.40 42.30 140.28 41.70L138.90 44.34M157.92 42.24L158.52 43.44Q158.88 44.04 159.18 44.58Q159.48 45.12 159.66 45.54Q159.90 44.52 160.14 43.59Q160.38 42.66 160.56 41.88L160.56 41.82L157.92 42.18L157.92 42.24M160.92 41.82L161.40 43.08Q161.70 43.92 161.97 44.67Q162.24 45.42 162.42 46.02L162.48 46.02L164.76 42.48L164.76 42.42L160.92 41.82L160.92 41.82M165.18 42.48L165.18 42.48Q165.36 42.96 165.54 43.41Q165.72 43.86 165.84 44.10Q166.20 43.56 166.53 42.99Q166.86 42.42 167.10 42L165.24 42.42Q165.24 42.48 165.18 42.48M143.16 42.42L144.78 44.88Q145.44 44.10 146.07 43.35Q146.70 42.60 147.12 42.12L143.16 42.42M149.34 42.90L149.34 42.84Q148.92 42.60 148.53 42.39Q148.14 42.18 147.96 42.12Q148.08 43.20 148.20 44.19Q148.32 45.18 148.38 45.72Q148.68 45 148.95 44.28Q149.22 43.56 149.46 42.90L149.40 42.90L149.34 42.90M145.08 45.12L145.08 45.12L145.14 45.18Q145.86 44.40 146.46 43.65Q147.06 42.90 147.48 42.42L147.48 42.24Q146.82 42.96 146.22 43.71Q145.62 44.46 145.08 45.12Q145.08 45.12 145.08 45.12M147.96 46.20Q147.90 44.64 147.78 43.71Q147.66 42.78 147.60 42.24L147.48 42.42Q147.60 43.44 147.75 44.40Q147.90 45.36 147.96 46.20M157.50 42.30L157.50 42.30L157.50 42.30L157.50 42.30M166.20 44.28L168.90 45.30L167.34 42.30Q166.98 42.84 166.68 43.38Q166.38 43.92 166.20 44.28M160.02 45.66L160.68 45.78Q161.16 45.84 161.55 45.90Q161.94 45.96 162.06 46.02Q161.64 44.94 161.31 43.95Q160.98 42.96 160.80 42.48L160.02 45.66M142.92 42.72L141.78 45.54Q142.56 45.36 143.25 45.24Q143.94 45.12 144.42 45L142.92 42.72M157.32 44.94L159.24 45.48Q158.82 44.64 158.40 43.92Q157.98 43.20 157.74 42.78Q157.62 43.32 157.47 43.83Q157.32 44.34 157.38 44.28Q157.32 44.58 157.32 44.94M122.82 45.84L124.38 45.96Q125.16 46.02 125.85 46.11Q126.54 46.20 126.90 46.20L123.90 42.78Q123.60 43.62 123.30 44.40Q123 45.18 122.82 45.84M164.94 42.90L163.14 45.66L165.54 44.28Q165.12 43.32 164.94 42.90M170.46 43.02L169.86 45.18L170.46 44.76L170.46 43.02M149.70 43.26L149.28 44.40Q149.04 44.94 148.89 45.42Q148.74 45.90 148.68 46.02L151.20 45.12Q151.26 44.88 151.26 44.58L149.70 43.26M130.26 44.70L132.60 47.70L132.78 46.56Q132.78 45.24 132.78 44.28L130.26 44.70M129.84 44.76L129.84 44.82L129.90 44.76L129.90 44.76L129.84 44.76M138.54 48.18L138.48 49.38L138.60 49.26Q138.60 48.72 138.54 48.18L138.72 45.06L138.60 44.76L138.48 46.56Q138.54 47.40 138.54 48.18M165.90 44.82L164.58 47.76L168.54 47.52L165.90 44.82M139.02 44.94L139.38 45.84Q139.62 46.50 139.83 47.04Q140.04 47.58 140.16 47.82L141.12 45.96Q140.46 45.66 139.86 45.36Q139.26 45.06 139.02 44.94M162.84 46.38L163.26 46.80Q163.98 47.40 164.16 47.58L165.30 44.94L162.84 46.38M127.74 46.56L128.28 47.46Q128.64 46.74 128.91 46.08Q129.18 45.42 129.24 45.36L127.74 46.56M169.74 45.84L170.46 47.40L170.46 45.36L169.74 45.84M157.26 45.48L157.68 46.80Q157.92 47.52 158.13 48.18Q158.34 48.84 158.40 49.08Q158.70 48.24 158.94 47.46Q159.18 46.68 159.42 46.02L157.32 45.42Q157.32 45.42 157.26 45.48M141.72 46.02L142.38 48.42L144.30 45.54Q143.58 45.66 142.92 45.78Q142.26 45.90 141.72 46.02M120 45.54L120.30 46.20Q120.66 46.74 120.93 47.28Q121.20 47.82 121.38 48.12L122.16 46.20L120 45.54M145.14 45.54L146.04 49.50L147.90 46.56L145.14 45.54M148.62 46.56L149.04 47.46Q149.70 48.72 149.94 49.20L151.20 46.56Q151.20 46.08 151.20 45.66L148.62 46.56M142.68 48.84L143.58 49.14Q144.18 49.32 144.75 49.50Q145.32 49.68 145.62 49.74L144.72 45.78L142.68 48.84M159.96 46.14L160.08 47.40Q160.14 48 160.17 48.48Q160.20 48.96 160.20 49.08L162 46.50Q161.40 46.38 160.86 46.29Q160.32 46.20 159.96 46.14M123 46.32L124.32 48.12Q126 47.10 126.72 46.68Q125.64 46.56 124.65 46.47Q123.66 46.38 123 46.32M159.84 49.62L159.90 49.50L159.90 49.50L158.64 49.62L158.58 49.68L158.58 49.74Q158.94 49.68 159.27 49.65Q159.60 49.62 159.84 49.62Q159.84 49.62 159.84 49.62M140.46 48.24L141.96 48.60L141.36 46.50L140.46 48.24M122.52 46.50L121.74 48.36Q122.40 48.36 122.94 48.30Q123.48 48.24 123.78 48.24L122.52 46.50M169.32 47.64L170.22 48L169.56 46.56L169.32 47.64M120 47.52L120.72 48Q120.54 47.64 120.36 47.28Q120.18 46.92 120 46.56Q120 47.10 120 47.52M162.48 46.68L160.68 49.20L163.80 47.94Q163.38 47.58 163.02 47.25Q162.66 46.92 162.48 46.68M127.38 46.80L126.48 47.34Q125.94 47.70 125.55 47.94Q125.16 48.18 125.28 48.06L127.92 47.82L127.38 46.80M148.26 46.92L146.40 49.80L149.58 49.56Q148.74 47.88 148.26 46.92M157.20 48.54L157.92 49.14L157.26 46.98Q157.20 47.64 157.20 48.54M150.96 53.16L150.90 53.16L150.96 53.28L151.32 53.58Q151.32 53.52 151.32 53.43Q151.32 53.34 151.26 53.10Q151.26 52.80 151.26 52.50Q151.26 52.20 151.26 51.90Q151.20 50.76 151.17 49.65Q151.14 48.54 151.14 47.46L150.12 49.62L150.18 49.62Q150.18 49.62 150.18 49.68Q150.24 49.80 150.12 49.92L150.90 53.10L150.96 53.16M164.40 48.12L165.96 51.60L168.66 47.88Q167.58 47.94 166.50 48Q165.42 48.06 164.46 48.12L164.40 48.12M121.14 48.78L121.08 48.60L120 47.94Q120 48.78 120 49.59Q120 50.40 120 51.06L121.20 48.78L121.14 48.78L121.14 48.78M170.16 49.68Q170.22 49.38 170.25 49.08Q170.28 48.78 170.34 48.48L169.32 48L169.62 52.50L169.98 51Q170.04 50.40 170.16 49.68M128.58 48.24L132.36 48.48L132.42 48.36L128.58 48.12L128.52 48.24L128.58 48.24M124.50 48.54L127.38 53.10L128.16 48.24L128.16 48.12Q127.14 48.24 126.24 48.33Q125.34 48.42 124.56 48.48L124.50 48.54M160.26 49.80L162.48 51.48L163.98 48.24L160.32 49.74L160.26 49.80M166.26 51.90L166.26 51.96L166.32 51.96L168.90 48.42L168.84 48.24L166.26 51.84Q166.20 51.84 166.17 51.84Q166.14 51.84 166.26 51.90M169.32 53.52L169.32 53.46L169.02 48.30L168.90 48.42L169.20 53.46L169.32 53.52M121.62 48.78L122.34 49.92Q122.76 50.52 123.18 51.12Q123.60 51.72 123.84 52.14Q123.96 51.24 124.02 50.31Q124.08 49.38 124.14 48.66L124.08 48.54L121.62 48.78L121.62 48.78M162.90 51.48L163.80 51.54Q164.40 51.60 164.88 51.63Q165.36 51.66 165.66 51.66L164.22 48.60L162.90 51.48M142.08 49.02L142.08 49.02L140.28 48.60L140.22 48.84L140.04 51.48L142.08 49.02L142.08 49.02M132.60 48.72L131.76 49.56Q130.62 50.70 130.20 51.12L132.96 50.76Q132.96 50.46 132.93 50.19Q132.90 49.92 132.90 49.62Q132.78 49.32 132.69 49.02Q132.60 48.72 132.60 48.72M128.40 48.96L127.80 52.74L129.24 51.36Q129 50.52 128.73 49.83Q128.46 49.14 128.40 48.96M138.66 49.86Q138.72 50.82 138.78 51.66L139.80 48.96Q139.44 49.20 139.14 49.44Q138.84 49.68 138.66 49.86M157.20 51Q157.20 51.36 157.20 51.66Q157.20 51.96 157.20 52.32Q157.50 51.66 157.74 51.06Q157.98 50.46 158.22 50.04L158.16 49.98L158.16 49.92L158.16 49.92L158.10 49.80L157.20 49.02Q157.20 49.50 157.20 50.01Q157.20 50.52 157.20 51L157.20 51M119.94 51.96L123.48 52.20L121.38 49.14L119.94 51.90Q119.94 51.90 119.94 51.96M142.50 49.14L142.86 50.10Q143.10 50.82 143.34 51.48Q143.58 52.14 143.76 52.68L143.76 52.62L145.68 50.16Q145.68 50.16 145.68 50.16Q144.84 49.86 144.03 49.62Q143.22 49.38 142.50 49.14M124.20 52.32L126.90 53.04L124.44 49.14Q124.38 49.98 124.32 50.79Q124.26 51.60 124.20 52.32M140.34 51.72L143.34 52.56Q143.04 51.66 142.74 50.85Q142.44 50.04 142.26 49.44L140.34 51.72M147.60 51.24L147.60 51.24L147.66 51.30Q148.20 50.88 148.71 50.49Q149.22 50.10 149.52 49.92L146.22 50.22Q146.58 50.52 146.94 50.79Q147.30 51.06 147.60 51.24L147.60 51.24M158.64 50.10L159.90 53.10L159.90 49.98L158.64 50.10M139.80 50.04Q139.50 50.88 139.23 51.60Q138.96 52.32 138.90 52.44Q139.38 52.02 139.68 51.72L139.80 50.04M148.08 51.48L148.86 51.90Q149.40 52.20 149.85 52.47Q150.30 52.74 150.48 52.86L149.82 50.16Q149.28 50.52 148.83 50.88Q148.38 51.24 148.08 51.48M160.26 50.22L160.26 53.22L162.18 51.66Q161.58 51.24 161.07 50.85Q160.56 50.46 160.26 50.22M145.98 50.46L144.42 52.38L147.18 51.42Q146.82 51.12 146.49 50.85Q146.16 50.58 145.98 50.46M157.26 53.10L157.86 53.16Q158.40 53.28 158.91 53.34Q159.42 53.40 159.66 53.40L158.40 50.46Q158.10 51.18 157.80 51.90Q157.50 52.62 157.26 53.10M129.90 51.60L131.88 55.44L133.02 51.96Q132.96 51.66 132.96 51.24L129.90 51.60M144.06 53.04L145.50 54.96L147.12 51.90L144.06 53.04M162.96 51.96L164.64 55.08Q164.94 54.30 165.21 53.52Q165.48 52.74 165.66 52.20Q164.88 52.08 164.16 52.02Q163.44 51.96 162.96 51.96M148.08 52.02L149.04 55.26L150.48 53.40Q149.76 52.98 149.07 52.59Q148.38 52.20 148.08 52.02M143.52 53.04L143.52 53.04L142.38 55.68Q142.32 55.68 142.20 55.68L142.32 55.86L142.38 55.68L143.52 53.04L143.52 53.04L143.52 53.04Q143.46 53.04 143.52 52.98L143.46 52.98L143.46 52.98Q143.46 53.04 143.52 53.04L143.52 53.04M130.74 55.86Q130.92 55.86 131.13 55.86Q131.34 55.86 131.52 55.86L129.60 52.08L128.64 55.86L130.74 55.86L130.74 55.86M145.86 55.20L148.56 55.44L147.60 52.08L145.86 55.20M127.74 53.46L128.28 55.26Q128.58 54.30 128.79 53.43Q129 52.56 129.12 52.14L127.74 53.46M161.34 55.56Q161.76 55.56 162.21 55.59Q162.66 55.62 163.14 55.62Q163.68 55.56 164.34 55.50L162.60 52.26L161.34 55.56M137.40 52.32L137.40 52.32Q137.40 52.32 137.40 52.32M160.32 53.76L160.56 54.54Q160.68 54.90 160.80 55.20Q160.92 55.50 160.86 55.38L162 52.38L160.32 53.76M120 52.44L120.60 53.34Q121.38 54.60 121.92 55.44Q122.40 54.72 122.82 53.97Q123.24 53.22 123.54 52.68L120 52.44M166.44 52.44L166.62 53.10Q166.86 53.82 167.07 54.45Q167.28 55.08 167.46 55.50Q167.88 55.02 168.33 54.57Q168.78 54.12 169.02 53.76L166.44 52.44M139.32 55.32L139.50 55.44L141 55.68Q140.76 55.68 140.67 55.68Q140.58 55.68 141.30 55.68Q141.30 55.68 141.36 55.68Q141.42 55.68 141.78 55.68Q141.30 54.72 140.79 53.85Q140.28 52.98 139.98 52.44Q139.74 53.28 139.53 54.03Q139.32 54.78 139.20 55.20Q139.26 55.26 139.32 55.32M138.90 53.34Q138.90 53.58 138.90 53.85Q138.90 54.12 138.96 54.36L139.44 52.62Q139.20 52.80 139.02 52.98Q138.84 53.16 138.90 53.10Q138.90 53.10 138.90 53.34M165 55.50L165.66 55.56Q166.08 55.62 166.38 55.65Q166.68 55.68 166.32 55.62Q166.50 55.62 166.65 55.62Q166.80 55.62 166.98 55.62Q166.68 54.72 166.41 53.91Q166.14 53.10 166.02 52.68Q165.72 53.46 165.48 54.18Q165.24 54.90 165 55.50M124.26 52.80L124.44 53.70Q124.62 54.30 124.71 54.84Q124.80 55.38 124.86 55.62L126.96 53.52L124.26 52.80M133.02 53.28L133.02 53.10L132.18 55.74Q132.48 55.68 132.72 55.44Q133.08 55.02 133.05 54.42Q133.02 53.82 133.02 53.28M119.88 53.82Q119.88 53.82 119.85 53.88Q119.82 53.94 119.82 54.36L121.20 55.20Q120.72 54.48 120.33 53.85Q119.94 53.22 119.88 53.16Q119.88 53.52 119.88 53.82M143.76 53.40L143.52 53.88Q143.28 54.48 143.07 54.99Q142.86 55.50 142.80 55.68Q142.98 55.68 143.22 55.68L145.08 55.20L143.76 53.40M157.20 53.58Q157.20 53.70 157.17 53.85Q157.14 54 157.14 54.18Q157.56 54.06 157.95 53.97Q158.34 53.88 158.70 53.76Q158.28 53.70 157.86 53.64Q157.44 53.58 157.20 53.58M150.90 53.70L149.64 55.20L151.32 54.54Q151.38 54.30 151.32 54.06L150.90 53.70M125.34 55.86L127.98 55.86L127.32 53.82L125.34 55.86M157.68 54.54L160.20 55.56Q160.32 55.56 160.44 55.56L159.84 54Q159.12 54.18 158.49 54.33Q157.86 54.48 157.68 54.54M169.50 54L168.96 54.54Q168.60 54.96 168.33 55.26Q168.06 55.56 168.30 55.26Q168.90 55.02 169.35 54.81Q169.80 54.60 169.68 54.66Q169.74 54.48 169.74 54.18L169.50 54M158.40 55.56Q158.76 55.62 159.36 55.62L157.26 54.78Q157.32 55.08 157.50 55.26Q157.68 55.38 157.92 55.44Q158.16 55.50 158.40 55.56M151.02 55.20L151.14 55.02L149.70 55.56Q150.06 55.56 150.42 55.50Q150.78 55.44 151.02 55.20M121.02 55.80L121.50 55.80L120.30 55.08L121.02 55.80M169.38 55.26L169.44 55.14Q168.96 55.38 168.57 55.56Q168.18 55.74 168.48 55.62Q169.08 55.56 169.38 55.26M120.12 55.80L120.48 55.80L119.88 55.20Q119.94 55.32 120 55.47Q120.06 55.62 120.12 55.80M145.44 55.62Q145.38 55.62 145.32 55.56L144.96 55.62Q145.20 55.62 145.44 55.62L145.44 55.62M129.60 57.30L129.60 57.30L129.60 57.30L129.60 57.30M164.34 26.70Q164.34 26.70 164.34 26.70Q164.34 26.70 164.28 26.70L164.34 26.70Q164.34 26.70 164.34 26.70L164.34 26.70Q164.34 26.70 164.34 26.70M125.34 31.50L125.34 31.56Q125.34 31.56 125.34 31.56L125.46 31.68L125.46 31.62Q125.40 31.56 125.34 31.56L125.34 31.56L125.34 31.50Q125.28 31.44 125.34 31.38L125.28 31.38Q125.28 31.44 125.34 31.50L125.34 31.50M160.62 33.30L160.68 33.30Q161.76 32.46 162.72 31.68L162.60 31.68Q162.06 32.10 161.52 32.49Q160.98 32.88 160.56 33.24L160.56 33.30L160.56 33.30Q160.62 33.30 160.62 33.30M127.56 34.44L127.68 34.50L127.68 34.50Q127.62 34.50 127.62 34.44L127.56 34.44M147.72 38.76L147.66 38.76L147.78 38.94L147.78 38.82Q147.72 38.82 147.72 38.76M169.20 45.90L169.20 45.90L169.26 46.02L169.26 45.96Q169.26 45.96 169.20 45.90M128.52 47.88L128.52 47.88L132.48 48.12L132.36 48L128.58 47.76L128.52 47.88L128.52 47.88M139.86 48.42Q139.86 48.36 139.86 48.36Q139.86 48.36 139.86 48.36Q139.86 48.36 139.86 48.30L139.92 48.24L139.92 48.24L139.92 48.24L139.92 48.24L138.60 49.26Q138.60 49.32 138.60 49.44L139.86 48.48L139.86 48.42M129.60 51.18L129.60 51.18L129.60 51.18L129.60 51.18M124.56 55.86L122.22 55.68L122.10 55.80L122.10 55.80Q122.10 55.80 122.10 55.80L122.34 55.80Q122.88 55.86 123.45 55.86Q124.02 55.86 124.56 55.86L124.56 55.86ZM177 50.22Q176.94 50.22 176.94 50.16Q175.80 48.72 174.84 47.34Q174.84 47.34 174.78 47.22Q174.72 47.10 174.72 47.10Q174.18 45.60 174.06 43.92Q173.94 42.24 173.88 40.68Q173.82 39.30 173.88 37.59Q173.94 35.88 174.33 34.23Q174.72 32.58 175.62 31.50Q175.62 31.50 175.68 31.44Q175.68 31.44 175.68 31.44Q176.52 30.60 177.48 29.85Q178.44 29.10 179.46 28.38L180.12 27.66Q180.06 27.54 180.18 27.48Q180.30 27.36 180.48 27.42L183.24 25.86Q183.24 25.80 183.42 25.74Q183.42 25.74 183.42 25.74Q183.42 25.74 183.42 25.74L184.08 25.50Q184.68 25.14 185.31 24.78Q185.94 24.42 186.54 24.12Q186.54 24.12 186.66 24.06Q186.78 24 186.78 24Q188.04 23.70 189.27 23.52Q190.50 23.34 191.76 23.34Q194.04 23.34 196.08 23.64Q196.08 23.64 196.20 23.64Q196.26 23.70 196.32 23.70Q198.06 24.36 200.25 25.50Q202.44 26.64 204.48 28.02Q206.52 29.40 207.84 30.78Q207.84 30.78 207.90 30.84Q207.96 30.90 207.96 30.90Q208.50 31.74 208.95 32.64Q209.40 33.54 209.64 34.44Q209.70 34.50 209.70 34.68Q209.82 34.98 209.88 35.31Q209.94 35.64 209.94 36Q209.76 38.04 207.60 38.40Q207.24 38.46 206.88 38.43Q206.52 38.40 206.10 38.40Q205.92 38.34 205.71 38.34Q205.50 38.34 205.26 38.34Q204.48 38.34 203.67 38.37Q202.86 38.40 202.08 38.46Q201.54 38.46 200.97 38.49Q200.40 38.52 199.86 38.58Q199.26 38.58 198.69 38.58Q198.12 38.58 197.58 38.52Q197.40 38.52 197.16 38.52Q196.86 38.58 196.62 38.55Q196.38 38.52 196.08 38.40Q196.08 38.40 195.96 38.28Q195.84 38.22 195.84 38.22Q195.42 37.80 195 37.35Q194.58 36.90 194.16 36.48Q194.16 36.48 194.10 36.42Q194.10 36.36 194.10 36.36Q193.74 36 193.44 35.70Q192.78 35.16 192.12 35.64Q191.94 35.76 191.85 35.97Q191.76 36.18 191.64 36.36Q191.40 36.84 191.37 37.44Q191.34 38.04 191.28 38.52Q191.28 38.70 191.25 38.88Q191.22 39.06 191.22 39.24Q191.10 40.38 191.01 41.46Q190.92 42.54 191.04 43.62Q191.04 43.98 191.13 44.43Q191.22 44.88 191.52 45.12Q191.76 45.30 192.18 45.27Q192.60 45.24 192.78 45.06Q192.84 45.06 193.02 44.55Q193.20 44.04 193.38 43.86Q194.22 42.90 195.36 42.48Q195.66 42.36 195.90 42.36Q196.14 42.36 196.38 42.36Q196.68 42.42 196.86 42.42Q197.40 42.42 197.94 42.42Q198.48 42.42 199.02 42.42Q199.38 42.48 199.71 42.48Q200.04 42.48 200.40 42.48Q201.42 42.54 202.41 42.57Q203.40 42.60 204.36 42.60Q204.60 42.60 204.81 42.60Q205.02 42.60 205.26 42.60Q205.68 42.54 206.07 42.54Q206.46 42.54 206.88 42.60Q207.90 42.72 208.59 43.23Q209.28 43.74 209.46 44.88Q209.52 45.24 209.46 45.60Q209.40 45.96 209.28 46.32Q209.28 46.38 209.22 46.44Q208.92 47.64 208.26 48.72Q207.60 49.80 206.82 50.76Q206.82 50.76 206.76 50.82Q206.76 50.88 206.76 50.88Q206.34 51.30 205.80 51.78Q205.80 51.84 205.74 51.84Q204.84 52.68 203.88 53.40Q203.82 53.46 203.82 53.46Q201.72 55.08 199.62 56.16Q199.62 56.16 199.62 56.16Q199.62 56.22 199.62 56.22Q197.94 56.94 195.84 57.06Q193.74 57.18 191.94 57.24L190.20 57.96Q190.20 57.96 190.02 58.02Q189.84 58.02 189.84 58.02Q188.16 58.02 186.45 57.78Q184.74 57.54 183.24 56.88Q183.18 56.88 183.12 56.76Q183 56.70 183 56.70Q180.84 54.78 178.62 52.26Q178.62 52.20 178.56 52.20L177 50.22M190.20 24.90L190.20 24.90L192.72 24.96L193.56 24.84Q192.66 24.78 191.76 24.78Q190.80 24.78 190.20 24.90M195.96 24.78L196.14 25.20Q197.34 25.68 198.72 26.34L199.20 25.62L195.96 24.78M193.08 25.26L193.92 27.48L195.30 24.96Q195.18 24.96 195.06 24.96L193.08 25.26M194.28 27.84L197.22 28.02L195.72 25.14L194.28 27.84M187.68 25.26Q187.44 25.32 187.20 25.38Q186.96 25.56 186.66 25.71Q186.36 25.86 186.12 26.04L186.42 28.50L189.60 25.26L187.68 25.26M190.56 25.26L191.76 28.26L192.42 25.32L190.56 25.26M191.46 28.80L190.14 25.44L186.84 28.80L191.46 28.80M193.62 27.90L192.78 25.86L192.18 28.62L193.62 27.90M185.94 28.80L185.64 26.28Q185.40 26.40 185.16 26.58L183.96 28.62L185.94 28.80M198.06 28.08L201.54 28.20L200.94 27.54Q200.04 27.00 199.08 26.52L198.06 28.08M183.78 27.36L183.78 27.96L184.32 27.06Q184.02 27.24 183.78 27.36M183.30 28.44L183.30 27.66Q182.88 27.90 182.46 28.14L183.30 28.44M196.02 32.10L197.40 28.44L194.16 28.20L196.02 32.10M193.62 30.96L193.74 28.26L192.06 29.10Q192.06 29.10 192.06 29.10L193.62 30.96M181.74 30.72L183.30 28.86Q183.30 28.86 183.30 28.86L182.04 28.38Q181.56 28.74 181.02 29.04L181.74 30.72M197.82 28.50L199.02 31.20L201.84 28.56L197.82 28.50M204.66 29.94Q204.18 29.58 203.67 29.25Q203.16 28.92 202.44 28.56L204.66 30.72L204.66 29.94M202.14 28.80L199.62 31.14L204.24 30.84L202.14 28.80M196.44 32.04L198.66 31.32L197.64 28.98L196.44 32.04M193.98 31.14L195.48 31.86L194.10 28.98L193.98 31.14M182.16 30.72L185.58 30.90L183.54 29.16L182.16 30.72M188.52 31.56L191.46 29.16L186.48 29.16L188.52 31.56M178.56 30.78L181.32 30.72L180.72 29.22Q179.52 30.06 178.56 30.78M189.18 31.50L193.26 31.08L191.82 29.40L189.18 31.50M186.48 30.96L187.74 31.32L186.48 29.76L186.48 30.96M205.02 30.24L205.02 30.84L205.92 30.90Q205.50 30.60 205.02 30.24M177.96 31.32Q177.84 31.44 177.66 31.56L180.42 35.40L181.38 31.20L177.96 31.32M199.32 31.68L201.12 35.64L204.30 31.32L199.32 31.68M205.08 31.32L205.38 33.54L206.76 31.74Q206.64 31.62 206.52 31.50L205.08 31.32M183 34.68L186.78 35.58L183.12 34.56L186.18 31.38L183 34.68M187.08 34.92L188.10 31.98L186.54 31.50L187.08 34.92M176.10 33.18Q176.22 33.24 176.16 33.36Q176.40 32.82 176.70 32.46Q176.70 32.46 176.70 32.46Q176.70 32.46 176.70 32.46Q176.70 32.46 176.70 32.46Q176.76 32.40 176.76 32.40Q176.70 32.46 176.70 32.46Q176.88 32.28 177 32.16L176.94 31.50L176.10 33.18M188.82 31.98L190.74 34.50L193.20 31.56L188.82 31.98M204.96 34.02L204.60 31.62L201.84 35.52L204.96 34.02M195.60 32.46L194.04 31.68L194.28 33.78L195.60 32.46M198.18 34.38L198.66 31.80L196.44 32.52L198.18 34.38M193.86 34.08L193.56 31.86L191.52 34.32Q192.42 33.84 193.50 34.14L193.86 34.08M177.66 35.94L180.12 35.76L177.36 31.92L177.66 35.94M182.34 34.56L181.68 31.98L180.90 35.46L182.34 34.56M208.26 34.80Q208.08 34.08 207.75 33.42Q207.42 32.76 207.06 32.16L205.62 34.02L208.26 34.80M200.58 35.64L199.08 32.28L198.60 34.80L200.58 35.64M190.32 34.74L188.46 32.28L187.32 35.52L190.32 34.74M197.70 34.56L196.02 32.76L194.64 34.08L197.70 34.56M175.56 35.34L176.94 35.76L175.98 33.84L175.62 34.98Q175.62 35.16 175.56 35.34M208.44 35.46Q208.44 35.34 208.38 35.22L205.38 34.32L206.40 36.96Q206.70 37.02 206.88 37.02L208.44 35.46M201.36 36.12L203.10 36.96Q203.76 36.90 204.24 36.90L205.02 34.38L201.36 36.12M198.12 34.98L194.40 34.44L196.92 37.14Q197.04 37.14 197.22 37.14L198.12 34.98M205.98 36.96L205.20 34.86L204.60 36.90Q204.96 36.90 205.26 36.90Q205.56 36.90 205.98 36.96M182.46 34.92L180.78 36.06Q180.78 36.06 180.78 36.06Q180.78 36.12 180.78 36.12L182.04 37.98L182.46 34.92M190.56 35.04L187.20 36L189.12 38.88L190.56 35.04M186.84 36.06L183.12 35.10L186.54 38.82L186.84 36.06M182.82 35.22L182.40 38.10L185.94 38.76L182.82 35.22M200.88 36.30Q200.88 36.24 200.82 36.12L198.78 35.22L200.40 37.08Q200.52 37.08 200.64 37.08L200.88 36.30M199.92 37.08L198.42 35.34L197.64 37.08Q197.64 37.08 197.64 37.08Q198.18 37.14 198.72 37.14Q199.26 37.14 199.80 37.14Q199.86 37.08 199.92 37.08M175.50 35.70Q175.38 36.66 175.32 37.74L177.18 36.24L175.50 35.70M208.50 35.94L207.48 36.96Q207.96 36.84 208.20 36.66Q208.44 36.48 208.50 35.94M180.48 36.36L178.20 37.98L181.62 38.04L180.48 36.36M202.32 36.96L201.24 36.48L201.06 37.08Q201.30 37.02 201.54 37.02Q201.78 37.02 202.02 37.02Q202.14 37.02 202.20 36.99Q202.26 36.96 202.32 36.96M187.14 36.54L186.84 38.88L188.70 38.88L187.14 36.54M175.68 37.92L177.24 37.98L177.18 36.66L175.68 37.92M189.90 37.92L189.42 39.18Q189.42 39.18 189.42 39.18Q189.42 39.18 189.42 39.18Q189.42 39.18 189.36 39.36L189.60 40.86Q189.66 40.44 189.69 39.99Q189.72 39.54 189.78 39.06Q189.84 38.64 189.84 38.40Q189.84 38.28 189.87 38.16Q189.90 38.04 189.90 37.92M176.34 41.10L177.18 38.46L175.38 38.34L176.34 41.10M186.12 39.24L182.46 38.58L183.54 41.70L186.12 39.24M177.54 38.82L176.64 41.76L179.58 42.78L177.54 38.82M176.10 41.82Q176.10 41.82 176.16 41.76L175.38 42.30Q175.38 41.88 175.38 41.43Q175.38 40.98 175.32 40.56Q175.32 39.90 175.26 39.24L175.14 38.88L175.08 39.42L175.38 42.30Q175.38 42.36 175.44 42.42L176.10 41.82M183.12 41.94L182.10 38.94L180.48 42.84L183.12 41.94M188.82 39.36L186.90 39.36L187.62 42.36L188.82 39.36M187.26 42.84L186.48 39.60L183.90 42L187.26 42.84M189.06 39.96L188.22 42.24L189.30 41.16L189.06 39.96M187.80 43.20L189.78 44.88Q189.72 44.58 189.66 44.31Q189.60 44.04 189.60 43.74Q189.54 43.08 189.54 42.24L189.48 41.52L187.80 43.20M179.82 43.26L176.70 42.12L177.60 44.76L179.82 43.26M185.16 46.56L187.38 43.26Q187.38 43.20 187.32 43.20L183.60 42.30L185.16 46.56M183.12 42.36L180.30 43.32Q180.30 43.32 180.24 43.32L181.08 45.24L183.12 42.36M175.62 44.64Q175.62 44.76 175.68 44.88L176.34 42.66L177.24 44.94L176.28 42.48L175.62 44.64M175.50 43.74L175.92 42.54L175.44 42.84Q175.44 43.32 175.50 43.74M183.36 42.66L181.44 45.36L184.68 46.44L183.36 42.66M187.62 43.50L185.70 46.38L189.54 45.12L187.62 43.50M179.94 43.56L178.08 44.82L180.66 45.18L179.94 43.56M196.44 46.32L196.92 43.86Q196.86 43.86 196.80 43.86Q196.74 43.86 196.50 43.80Q196.26 43.74 196.14 43.74L196.44 46.32M199.80 46.26Q199.86 46.26 199.86 46.26L201.30 43.98Q201.06 43.98 200.82 43.98Q200.58 43.98 200.34 43.92Q199.98 43.92 199.65 43.92Q199.32 43.92 198.96 43.86Q198.36 43.86 197.64 43.86L199.80 46.26M206.28 44.58Q206.28 44.58 206.52 44.58L207.54 44.22Q207.30 44.10 206.64 43.98Q206.34 43.98 205.98 43.98L206.28 44.58M194.04 45.72Q193.92 46.02 193.74 46.20Q193.68 46.26 193.56 46.35Q193.44 46.44 193.20 46.62L196.14 46.86L195.78 43.98L194.04 45.72M196.74 46.80L199.38 46.32L197.28 43.98L196.74 46.80M200.28 46.26L203.40 46.44L201.90 44.04Q201.84 43.98 201.72 43.98L200.28 46.26M204.60 45.78L205.98 44.76L205.62 44.04L204.60 45.78M203.88 46.32L205.20 44.04Q204.96 44.04 204.78 44.04Q204.60 44.04 204.36 44.04Q203.46 44.04 202.32 44.04L203.88 46.32M207.42 44.70L207.96 44.70Q207.90 44.58 207.84 44.52L207.42 44.70M208.08 45.18L206.64 45.12L207.48 47.04Q207.72 46.56 207.84 46.08Q207.90 46.02 207.90 45.84Q208.08 45.42 208.08 45.18M177.06 47.94L177.18 45.30L175.80 45.60Q175.92 46.08 176.10 46.56Q176.52 47.22 177.06 47.94M177.90 45.30L180.66 49.26L180.84 45.66L177.90 45.30M204.18 46.68L205.62 48.18L205.98 45.36L204.18 46.68M180.42 49.74L177.60 45.72L177.48 48.54Q177.96 49.14 178.50 49.80L180.42 49.74M191.70 49.44L190.02 45.90L188.88 49.56L191.70 49.44M183.48 48.48L181.26 46.08L181.08 49.62L183.48 48.48M190.80 46.38L192 48.90L192.42 46.92L192.06 46.74Q191.34 46.68 190.80 46.38M200.22 46.74L201.12 49.62L203.34 46.92L200.22 46.74M197.58 49.68L199.38 46.80L196.74 47.28L197.58 49.68M200.70 49.86L199.80 47.04L197.94 49.98L200.70 49.86M193.14 47.10L194.40 49.14L195.96 47.28L193.14 47.10M187.62 49.32L185.16 47.16L184.32 48.42L187.62 49.32M193.98 49.32L192.78 47.46L192.36 49.44L193.98 49.32M205.98 48.54Q205.98 48.60 205.98 48.60L206.64 48.60Q206.70 48.54 206.70 48.48L207.72 48.42L207.30 47.46Q207.06 47.94 206.70 48.48L205.98 48.54M197.16 49.92L196.38 47.58L194.82 49.38L197.16 49.92M182.64 51.78L183.72 48.78L181.08 49.98Q181.08 50.04 181.08 50.04Q181.08 50.04 181.08 50.04L182.64 51.78M185.04 52.98L188.28 49.86L184.08 48.78L185.04 52.98M206.40 48.96L205.92 49.14L205.86 49.68Q206.16 49.26 206.40 48.96M205.56 49.02L201.42 50.22L203.70 51.72Q204.30 51.18 204.90 50.64L205.56 49.02M183 51.90L184.56 52.74L183.84 49.44L183 51.90M192.84 52.98L194.16 49.68L192.30 49.80Q192.24 49.80 192.24 49.86L192.84 52.98M195.48 53.64L197.34 50.34Q197.34 50.40 197.28 50.28L194.58 49.80L195.48 53.64M190.20 52.02Q190.20 52.02 190.20 52.02L191.82 49.80L188.82 49.92L190.20 52.02M179.58 51.06L180.54 50.10L178.80 50.16Q179.16 50.64 179.58 51.06M185.70 52.86L189.78 52.08L188.52 50.16L185.70 52.86M200.76 50.22L197.76 50.34L199.26 51.96Q199.32 51.96 199.38 51.96L200.76 50.22M190.56 52.14L192.48 52.98L191.94 50.28L190.56 52.14M179.82 51.36Q180 51.60 180.18 51.78L182.16 51.78L180.84 50.34L179.82 51.36M193.14 53.22L195.12 53.70L194.34 50.34L193.14 53.22M201.06 50.40L199.80 51.96L203.28 52.08Q203.34 52.02 203.40 51.96L201.06 50.40M197.58 50.64L195.96 53.46L198.90 52.14L197.58 50.64M182.46 52.26L180.60 52.26Q181.62 53.40 182.64 54.42L182.46 52.26M199.68 52.44L200.28 54.18Q201.48 53.40 202.68 52.50L199.68 52.44M184.62 53.34L183.18 52.56L184.08 54.72L184.62 53.34M187.68 55.98L189.72 52.62L185.40 53.40L187.68 55.98M190.44 52.62L190.68 55.92L192.42 53.52L190.44 52.62M198.90 52.68L195.90 54.06L197.58 55.32Q197.76 55.32 197.94 55.26L198.90 52.68M199.86 54.42L199.32 52.92L198.54 55.08Q198.78 54.96 198.96 54.90Q199.44 54.66 199.86 54.42M183.60 54.96L183.06 53.52L183.12 54.72L183.60 54.96M187.02 55.92L184.98 53.70L184.38 55.26L187.02 55.92M194.52 55.74L192.78 53.76L191.22 55.98L191.52 55.86Q191.52 55.86 191.64 55.80Q191.70 55.80 191.70 55.80Q191.94 55.80 192.42 55.80Q192.96 55.80 193.47 55.77Q193.98 55.74 194.52 55.74M195.18 54.18L193.44 53.82L195.18 55.68Q195.18 55.68 195.24 55.68L195.18 54.18M196.98 55.50L195.66 54.48L195.72 55.68Q196.38 55.56 196.98 55.50M187.44 56.40L184.02 55.50Q184.02 55.50 184.02 55.50Q184.02 55.50 183.96 55.47Q183.90 55.44 183.60 55.32Q183.72 55.44 183.90 55.56Q184.74 55.98 185.64 56.16Q186.54 56.34 187.44 56.40ZM212.52 55.74Q212.46 55.74 212.40 55.62Q212.34 55.50 212.34 55.50Q212.22 55.14 212.07 54.84Q211.92 54.54 211.86 54.18Q211.86 53.94 211.86 53.70Q211.86 53.46 211.86 53.28Q211.92 52.98 211.92 52.86Q211.92 52.32 211.95 51.75Q211.98 51.18 211.98 50.64Q212.04 49.56 212.07 48.45Q212.10 47.34 212.10 46.20Q212.10 45.60 212.10 45.06Q212.10 44.94 212.10 44.70Q212.10 43.98 212.16 43.29Q212.22 42.60 212.76 42Q213.36 41.40 214.05 41.31Q214.74 41.22 215.46 41.28Q215.64 41.28 215.70 41.28Q216.18 41.28 216.84 41.28Q218.58 41.28 220.35 41.31Q222.12 41.34 223.86 41.40Q224.70 41.40 225.48 41.52Q226.26 41.64 226.92 42.24Q227.52 42.90 227.61 43.62Q227.70 44.34 227.70 45.12Q227.70 45.24 227.70 45.36Q227.70 46.20 227.67 47.07Q227.64 47.94 227.58 48.78Q227.58 49.68 227.55 50.55Q227.52 51.42 227.52 52.26Q227.52 52.50 227.52 52.71Q227.52 52.92 227.52 53.10Q227.58 54 227.49 54.87Q227.40 55.74 226.74 56.40Q226.14 57 225.45 57.09Q224.76 57.18 224.04 57.18Q223.80 57.18 223.68 57.18Q223.38 57.24 223.08 57.24Q222.78 57.24 222.48 57.24Q220.44 57.36 218.40 57.42Q216.36 57.48 214.38 57.54Q214.26 57.54 213.96 57.36Q213.66 57.24 213.54 57.12L212.52 55.74M216.60 45.96L218.82 42.72Q218.34 42.72 217.83 42.72Q217.32 42.72 216.78 42.72Q216.18 42.72 215.70 42.72Q215.58 42.72 215.34 42.66Q214.98 42.66 214.80 42.66L216.60 45.96M213.60 43.32L213.96 45.06L214.38 42.72Q214.02 42.78 213.84 43.02Q213.72 43.14 213.60 43.32M219.24 45.78L222 42.78Q221.34 42.78 220.68 42.75Q220.02 42.72 219.30 42.72L219.24 45.78M219.78 45.96L222.66 42.78Q222.66 42.78 222.69 42.78Q222.72 42.78 222.72 42.78L224.52 44.40L222.90 42.78Q222.78 42.78 222.66 42.78Q222.60 42.78 222.48 42.78L219.78 45.96M223.44 42.84L224.70 44.04L224.82 42.84Q224.58 42.84 224.16 42.84Q223.92 42.84 223.80 42.84Q223.62 42.84 223.44 42.84M225.48 43.02L226.26 44.34Q226.20 43.62 225.90 43.26Q225.72 43.08 225.48 43.02M214.26 45.54L216.18 45.90L214.68 43.14L214.26 45.54M225.18 43.14L225 44.28L226.08 44.70L225.18 43.14M217.02 45.96L218.88 46.02L218.94 43.20L217.02 45.96M225.12 44.88L225.96 48.54L226.26 46.26Q226.26 45.78 226.26 45.36Q226.26 45.36 226.26 45.33Q226.26 45.30 226.26 45.30L225.12 44.88M222.48 48.90L224.34 44.88L219.60 46.38L222.48 48.90M225.72 49.56L224.70 45.18L222.90 49.14L225.72 49.56M218.88 46.50L217.08 46.44L218.58 48.66L218.88 46.50M218.22 48.96L216.54 46.56L214.14 48.24L218.22 48.96M221.94 49.08L219.30 46.74L219 49.08L221.94 49.08M218.52 49.38L213.90 48.54L217.50 51.96L218.52 49.38M216.90 51.96L213.72 48.84L213.42 50.52Q213.42 50.58 213.42 50.61Q213.42 50.64 213.42 50.70Q213.42 51 213.42 51.30Q213.42 51.60 213.42 51.90L216.90 51.96M222.30 49.44L218.94 49.44L220.80 53.16L222.30 49.44M225.78 49.92L222.78 49.50L224.52 51.78Q224.52 51.78 224.52 51.78L225.78 49.92M224.16 51.90L222.60 49.80L221.22 53.04L224.16 51.90M217.80 52.08L220.32 53.04L218.76 49.86L217.80 52.08M226.08 51.90Q226.08 51.48 226.08 51.06L225.90 50.40L224.94 51.78L226.08 51.90M224.94 55.02L226.08 52.68Q226.08 52.50 226.08 52.38L224.76 52.26L224.94 55.02M215.70 55.62L217.14 52.44L213.42 52.38L215.70 55.62M224.52 55.62L224.28 52.50L221.40 54.90L224.52 55.62M220.26 53.52L217.68 52.50L217.20 55.62L220.26 53.52M215.52 56.04Q215.52 56.04 215.52 55.98L213.36 52.92Q213.36 53.04 213.30 53.28Q213.24 53.70 213.30 53.94Q213.36 54.18 213.48 54.42Q213.60 54.66 213.66 54.90L214.56 56.10Q214.98 56.04 215.52 56.04M226.14 54.54Q226.20 54.18 226.14 53.64L225.42 55.08L226.14 54.54M220.62 54.84L220.56 53.88L218.22 55.50L220.62 54.84M216.66 55.86L216.96 53.88L216.12 55.86L216.66 55.86M220.62 55.20L217.80 55.98Q218.40 55.98 219.03 55.95Q219.66 55.92 220.32 55.92Q220.32 55.86 220.32 55.86L220.62 55.20M225.84 55.20L225.36 55.62Q225.54 55.56 225.72 55.38Q225.78 55.32 225.84 55.20M221.28 55.86Q221.82 55.86 222.42 55.80Q222.54 55.80 222.63 55.80Q222.72 55.80 222.84 55.80L220.98 55.32L220.74 55.86L221.28 55.86Z"/></g><g fill="#ffffff" transform="translate(0, 75)"><path d=""/></g></g></svg>